<svg width="330" height="106" viewBox="0 0 330 106" fill="none" xmlns="http://www.w3.org/2000/svg">
<path d="M325.607 63.6064L288.107 101.106C283.817 105.397 277.364 106.678 271.76 104.358C266.155 102.036 262.5 96.5664 262.5 90.5004V67.9994H15C6.716 67.9994 0 61.2834 0 52.9994C0 44.7154 6.716 37.9994 15 37.9994H262.5V15.4994C262.5 9.4324 266.154 3.9624 271.76 1.6414C273.615 0.873396 275.565 0.499397 277.497 0.499397C281.4 0.499397 285.237 2.02339 288.106 4.89339L325.606 42.3934C331.465 48.2514 331.465 57.7484 325.607 63.6064Z" fill="#457FCA"/>
</svg>
