<svg width="330" height="106" viewBox="0 0 330 106" fill="none" xmlns="http://www.w3.org/2000/svg">
<path d="M4.39337 63.6064L41.8934 101.106C46.1834 105.397 52.6364 106.678 58.2404 104.358C63.8454 102.036 67.5004 96.5664 67.5004 90.5004V67.9994H315C323.284 67.9994 330 61.2834 330 52.9994C330 44.7154 323.284 37.9994 315 37.9994H67.5004V15.4994C67.5004 9.4324 63.8464 3.9624 58.2404 1.6414C56.3854 0.873396 54.4354 0.499397 52.5034 0.499397C48.6004 0.499397 44.7634 2.02339 41.8944 4.89339L4.39438 42.3934C-1.46462 48.2514 -1.46463 57.7484 4.39337 63.6064Z" fill="#457FCA"/>
</svg>
