<svg width="439" height="439" viewBox="0 0 439 439" fill="none" xmlns="http://www.w3.org/2000/svg">
<path d="M409.133 109.203C389.525 75.611 362.928 49.014 329.335 29.407C295.736 9.801 259.058 0 219.273 0C179.492 0 142.803 9.801 109.21 29.407C75.615 49.011 49.018 75.608 29.41 109.203C9.801 142.8 0 179.489 0 219.267C0 259.047 9.804 295.73 29.407 329.329C49.014 362.921 75.611 389.518 109.206 409.127C142.803 428.732 179.489 438.534 219.269 438.534C259.049 438.534 295.739 428.732 329.334 409.127C362.927 389.525 389.523 362.921 409.129 329.329C428.732 295.733 438.532 259.045 438.532 219.267C438.533 179.485 428.732 142.795 409.133 109.203ZM361.449 231.831L335.468 257.812C331.855 261.425 327.567 263.232 322.621 263.232C317.673 263.232 313.392 261.425 309.774 257.812L255.82 203.851V347.171C255.82 352.119 254.007 356.403 250.392 360.018C246.779 363.638 242.494 365.445 237.545 365.445H200.998C196.05 365.445 191.767 363.638 188.151 360.018C184.534 356.404 182.725 352.12 182.725 347.171V203.851L128.766 257.812C125.335 261.237 121.058 262.945 115.916 262.945C110.776 262.945 106.493 261.237 103.066 257.812L77.085 231.831C73.663 228.402 71.948 224.117 71.948 218.979C71.948 213.842 73.657 209.56 77.085 206.132L180.441 102.779L206.422 76.798C209.849 73.373 214.132 71.658 219.269 71.658C224.411 71.658 228.692 73.373 232.118 76.798L258.098 102.779L361.448 206.132C364.88 209.559 366.588 213.842 366.588 218.979C366.589 224.117 364.881 228.402 361.449 231.831Z" fill="#EB3349"/>
</svg>
