<svg width="512" height="512" viewBox="0 0 512 512" fill="none" xmlns="http://www.w3.org/2000/svg">
<path d="M61.384 61.384H450.616V450.616H61.384V61.384Z" fill="#94E0DA"/>
<path d="M486 195.16C487.856 195.16 489.637 194.422 490.95 193.11C492.262 191.797 493 190.016 493 188.16C493 186.303 492.262 184.523 490.95 183.21C489.637 181.897 487.856 181.16 486 181.16H457.6V170.252C457.6 168.395 456.862 166.615 455.55 165.302C454.237 163.989 452.456 163.252 450.6 163.252C448.743 163.252 446.963 163.989 445.65 165.302C444.337 166.615 443.6 168.395 443.6 170.252V443.6H240.668C238.811 443.6 237.031 444.337 235.718 445.65C234.405 446.963 233.668 448.743 233.668 450.6C233.668 452.456 234.405 454.237 235.718 455.55C237.031 456.862 238.811 457.6 240.668 457.6H249V486C249 487.856 249.737 489.637 251.05 490.95C252.363 492.262 254.143 493 256 493C257.856 493 259.637 492.262 260.95 490.95C262.262 489.637 263 487.856 263 486V457.6H316.84V486C316.84 487.856 317.577 489.637 318.89 490.95C320.203 492.262 321.983 493 323.84 493C325.696 493 327.477 492.262 328.79 490.95C330.102 489.637 330.84 487.856 330.84 486V457.6H384.68V486C384.68 487.856 385.417 489.637 386.73 490.95C388.043 492.262 389.823 493 391.68 493C393.536 493 395.317 492.262 396.63 490.95C397.942 489.637 398.68 487.856 398.68 486V457.6H450.6C452.456 457.599 454.236 456.861 455.549 455.549C456.861 454.236 457.599 452.456 457.6 450.6V398.68H486C487.856 398.68 489.637 397.942 490.95 396.63C492.262 395.317 493 393.536 493 391.68C493 389.823 492.262 388.043 490.95 386.73C489.637 385.417 487.856 384.68 486 384.68H457.6V330.84H486C487.856 330.84 489.637 330.102 490.95 328.79C492.262 327.477 493 325.696 493 323.84C493 321.983 492.262 320.203 490.95 318.89C489.637 317.577 487.856 316.84 486 316.84H457.6V263H486C487.856 263 489.637 262.262 490.95 260.95C492.262 259.637 493 257.856 493 256C493 254.143 492.262 252.363 490.95 251.05C489.637 249.737 487.856 249 486 249H457.6V195.16H486Z" fill="#231F20"/>
<path d="M207.332 443.6H68.4V68.4H443.6V136.496C443.6 138.353 444.337 140.133 445.65 141.446C446.963 142.758 448.743 143.496 450.6 143.496C452.457 143.496 454.237 142.758 455.55 141.446C456.862 140.133 457.6 138.353 457.6 136.496V127.32H486C487.857 127.32 489.637 126.582 490.95 125.27C492.262 123.957 493 122.177 493 120.32C493 118.463 492.262 116.683 490.95 115.37C489.637 114.057 487.857 113.32 486 113.32H457.6V61.4C457.599 59.5438 456.861 57.7639 455.549 56.4514C454.236 55.1389 452.456 54.4011 450.6 54.4H398.68V26C398.68 24.1435 397.943 22.363 396.63 21.0503C395.317 19.7375 393.537 19 391.68 19C389.823 19 388.043 19.7375 386.73 21.0503C385.418 22.363 384.68 24.1435 384.68 26V54.4H330.84V26C330.84 24.1435 330.102 22.363 328.79 21.0503C327.477 19.7375 325.697 19 323.84 19C321.983 19 320.203 19.7375 318.89 21.0503C317.578 22.363 316.84 24.1435 316.84 26V54.4H263V26C263 24.1435 262.262 22.363 260.95 21.0503C259.637 19.7375 257.857 19 256 19C254.143 19 252.363 19.7375 251.05 21.0503C249.737 22.363 249 24.1435 249 26V54.4H195.16V26C195.16 24.1435 194.422 22.363 193.11 21.0503C191.797 19.7375 190.017 19 188.16 19C186.303 19 184.523 19.7375 183.21 21.0503C181.897 22.363 181.16 24.1435 181.16 26V54.4H127.32V26C127.32 24.1435 126.582 22.363 125.27 21.0503C123.957 19.7375 122.177 19 120.32 19C118.463 19 116.683 19.7375 115.37 21.0503C114.057 22.363 113.32 24.1435 113.32 26V54.4H61.4C59.5438 54.4011 57.7639 55.1389 56.4514 56.4514C55.1389 57.7639 54.4011 59.5438 54.4 61.4V113.32H26C24.1435 113.32 22.363 114.057 21.0503 115.37C19.7375 116.683 19 118.463 19 120.32C19 122.177 19.7375 123.957 21.0503 125.27C22.363 126.582 24.1435 127.32 26 127.32H54.4V181.16H26C24.1435 181.16 22.363 181.897 21.0503 183.21C19.7375 184.523 19 186.303 19 188.16C19 190.017 19.7375 191.797 21.0503 193.11C22.363 194.422 24.1435 195.16 26 195.16H54.4V249H26C24.1435 249 22.363 249.737 21.0503 251.05C19.7375 252.363 19 254.143 19 256C19 257.857 19.7375 259.637 21.0503 260.95C22.363 262.262 24.1435 263 26 263H54.4V316.84H26C24.1435 316.84 22.363 317.578 21.0503 318.89C19.7375 320.203 19 321.983 19 323.84C19 325.697 19.7375 327.477 21.0503 328.79C22.363 330.102 24.1435 330.84 26 330.84H54.4V384.68H26C24.1435 384.68 22.363 385.418 21.0503 386.73C19.7375 388.043 19 389.823 19 391.68C19 393.537 19.7375 395.317 21.0503 396.63C22.363 397.943 24.1435 398.68 26 398.68H54.4V450.6C54.4011 452.456 55.1389 454.236 56.4514 455.549C57.7639 456.861 59.5438 457.599 61.4 457.6H113.32V486C113.32 487.857 114.057 489.637 115.37 490.95C116.683 492.262 118.463 493 120.32 493C122.177 493 123.957 492.262 125.27 490.95C126.582 489.637 127.32 487.857 127.32 486V457.6H181.16V486C181.16 487.857 181.897 489.637 183.21 490.95C184.523 492.262 186.303 493 188.16 493C190.017 493 191.797 492.262 193.11 490.95C194.422 489.637 195.16 487.857 195.16 486V457.6H207.332C209.189 457.6 210.969 456.862 212.282 455.55C213.595 454.237 214.332 452.457 214.332 450.6C214.332 448.743 213.595 446.963 212.282 445.65C210.969 444.337 209.189 443.6 207.332 443.6V443.6Z" fill="#231F20"/>
<path d="M378.6 421.6H414.6C416.456 421.599 418.236 420.861 419.549 419.549C420.861 418.236 421.599 416.456 421.6 414.6V378.6C421.6 376.744 420.863 374.963 419.55 373.65C418.237 372.338 416.457 371.6 414.6 371.6C412.744 371.6 410.963 372.338 409.65 373.65C408.338 374.963 407.6 376.744 407.6 378.6V407.6H378.6C376.744 407.6 374.963 408.338 373.65 409.65C372.338 410.963 371.6 412.744 371.6 414.6C371.6 416.457 372.338 418.237 373.65 419.55C374.963 420.863 376.744 421.6 378.6 421.6V421.6Z" fill="#231F20"/>
<path d="M90.3999 414.6C90.401 416.456 91.1388 418.236 92.4513 419.549C93.7638 420.861 95.5437 421.599 97.3999 421.6H133.4C135.256 421.6 137.037 420.863 138.35 419.55C139.662 418.237 140.4 416.457 140.4 414.6C140.4 412.744 139.662 410.963 138.35 409.65C137.037 408.338 135.256 407.6 133.4 407.6H104.4V378.6C104.4 376.744 103.662 374.963 102.35 373.65C101.037 372.338 99.2564 371.6 97.3999 371.6C95.5434 371.6 93.7629 372.338 92.4501 373.65C91.1374 374.963 90.3999 376.744 90.3999 378.6V414.6Z" fill="#231F20"/>
<path d="M421.6 97.3999C421.599 95.5437 420.861 93.7638 419.549 92.4513C418.236 91.1388 416.456 90.401 414.6 90.3999H378.6C376.744 90.3999 374.963 91.1374 373.65 92.4501C372.338 93.7629 371.6 95.5434 371.6 97.3999C371.6 99.2564 372.338 101.037 373.65 102.35C374.963 103.662 376.744 104.4 378.6 104.4H407.6V133.4C407.6 135.256 408.338 137.037 409.65 138.35C410.963 139.662 412.744 140.4 414.6 140.4C416.457 140.4 418.237 139.662 419.55 138.35C420.863 137.037 421.6 135.256 421.6 133.4V97.3999Z" fill="#231F20"/>
<path d="M97.3999 140.4C99.2561 140.399 101.036 139.661 102.348 138.348C103.661 137.036 104.399 135.256 104.4 133.4V104.4H133.4C135.256 104.4 137.037 103.662 138.35 102.35C139.662 101.037 140.4 99.2564 140.4 97.3999C140.4 95.5434 139.662 93.7629 138.35 92.4501C137.037 91.1374 135.256 90.3999 133.4 90.3999H97.3999C95.5437 90.401 93.7638 91.1388 92.4513 92.4513C91.1388 93.7638 90.401 95.5437 90.3999 97.3999V133.4C90.401 135.256 91.1388 137.036 92.4513 138.348C93.7638 139.661 95.5437 140.399 97.3999 140.4V140.4Z" fill="#231F20"/>
<path d="M175.6 225.088C179.75 225.134 183.841 226.073 187.596 227.841C191.35 229.608 194.68 232.163 197.36 235.332L208.748 224.708C202.491 218.061 194.381 213.446 185.47 211.463C176.559 209.479 167.258 210.218 158.772 213.584C150.286 216.949 143.007 222.786 137.878 230.338C132.749 237.89 130.006 246.809 130.006 255.938C130.006 265.067 132.749 273.986 137.878 281.538C143.007 289.09 150.286 294.927 158.772 298.292C167.258 301.658 176.559 302.397 185.47 300.414C194.381 298.43 202.491 293.815 208.748 287.168L197.488 276.668C194.782 279.839 191.429 282.394 187.654 284.161C183.878 285.928 179.768 286.866 175.6 286.912C167.574 286.654 159.963 283.284 154.377 277.515C148.79 271.746 145.667 264.03 145.667 256C145.667 247.97 148.79 240.254 154.377 234.485C159.963 228.716 167.574 225.346 175.6 225.088V225.088Z" fill="#231F20"/>
<path d="M237.056 270.4H259.328C278.128 270.4 292.22 258.368 292.22 241.2C292.22 224.032 278.144 212 259.328 212H221.06V299.964H237.06L237.056 270.4ZM237.056 226.752H257.536C268.416 226.752 275.968 232.256 275.968 241.216C275.968 250.176 268.4 255.68 257.536 255.68H237.056V226.752Z" fill="#231F20"/>
<path d="M305.024 212.036V262.464C304.866 267.656 305.752 272.827 307.63 277.671C309.507 282.514 312.339 286.932 315.955 290.66C319.572 294.389 323.901 297.354 328.685 299.378C333.469 301.402 338.611 302.446 343.806 302.446C349.001 302.446 354.142 301.402 358.927 299.378C363.711 297.354 368.039 294.389 371.656 290.66C375.273 286.932 378.104 282.514 379.982 277.671C381.86 272.827 382.746 267.656 382.588 262.464V212.036H366.716V261.952C366.716 276.544 357.248 287.036 343.808 287.036C330.496 287.036 321.008 276.544 321.008 261.952V212.036H305.024Z" fill="#231F20"/>
</svg>
