<svg width="512" height="512" viewBox="0 0 512 512" fill="none" xmlns="http://www.w3.org/2000/svg">
<path d="M288.304 187.578V227.177L270.197 245.285H168.904L150.797 227.177V187.578H288.304Z" fill="#48709B"/>
<path d="M288.304 187.578V209.32L278.714 218.903C276.454 221.162 273.389 222.43 270.194 222.43H168.906C165.711 222.43 162.646 221.161 160.386 218.903L150.796 209.32V187.578H288.304Z" fill="#304E75"/>
<path d="M168.905 210.373L150.8 192.269V90.978L168.905 72.874H270.195L288.3 90.978V192.269L270.195 210.373H168.905Z" fill="#E94141"/>
<path d="M288.298 166.54V192.267L270.197 210.369H168.903L150.802 192.267V166.54L168.903 184.641H270.197L288.298 166.54Z" fill="#C62525"/>
<path d="M176.082 381.42V421.019L157.975 439.126H56.6922L38.5842 421.019V381.42H176.082Z" fill="#48709B"/>
<path d="M176.082 381.42V403.162L166.502 412.742C164.242 415.002 161.176 416.272 157.979 416.272H56.6872C53.4902 416.272 50.4252 415.002 48.1642 412.742L38.5842 403.162V381.42H176.082Z" fill="#304E75"/>
<path d="M56.6882 404.216L38.5842 386.112V284.821L56.6882 266.717H157.979L176.084 284.821V386.112L157.979 404.216H56.6882Z" fill="#E94141"/>
<path d="M176.081 360.382V386.11L157.98 404.212H56.6862L38.5842 386.11V360.382L56.6862 378.484H157.98L176.081 360.382Z" fill="#C62525"/>
<path d="M337.488 381.42V421.019L319.38 439.126H218.088L199.981 421.019V381.42H337.488Z" fill="#48709B"/>
<path d="M337.493 381.42V403.162L327.903 412.745C325.643 415.004 322.578 416.272 319.383 416.272H218.095C214.9 416.272 211.835 415.003 209.575 412.745L199.985 403.162V381.42H337.493Z" fill="#304E75"/>
<path d="M218.094 404.216L199.99 386.112V284.821L218.094 266.717H319.385L337.489 284.821V386.112L319.385 404.216H218.094Z" fill="#E94141"/>
<path d="M337.488 360.382V386.11L319.387 404.212H218.092L199.991 386.11V360.382L218.092 378.484H319.387L337.488 360.382Z" fill="#C62525"/>
<path d="M499.385 381.42V421.019L481.278 439.126H379.995L361.887 421.019V381.42H499.385Z" fill="#48709B"/>
<path d="M499.385 381.42V403.162L489.805 412.742C487.545 415.002 484.479 416.272 481.282 416.272H379.99C376.793 416.272 373.728 415.002 371.467 412.742L361.887 403.162V381.42H499.385Z" fill="#304E75"/>
<path d="M379.99 404.216L361.886 386.112V284.821L379.99 266.717H481.281L499.385 284.821V386.112L481.281 404.216H379.99Z" fill="#E94141"/>
<path d="M499.385 360.382V386.11L481.284 404.212H379.99L361.888 386.11V360.382L379.99 378.484H481.284L499.385 360.382Z" fill="#C62525"/>
<path d="M126.896 187.577V227.177L108.789 245.284H7.50607V222.429L7.49707 187.577H126.896Z" fill="#48709B"/>
<path d="M126.896 187.577V209.319L117.309 218.897C115.056 221.159 111.987 222.429 108.788 222.429H7.50607L7.49707 187.577H126.896Z" fill="#304E75"/>
<path d="M7.5 72.874H108.791L126.895 90.978V192.269L108.791 210.373H7.5V72.874Z" fill="#E4EAF6"/>
<path d="M7.49701 184.641H108.791L126.892 166.54V192.267L108.791 210.369H7.49701V184.641Z" fill="#C7CFE2"/>
<path d="M450.196 187.578V227.177L432.089 245.285H330.806L312.699 227.177V187.578H450.196Z" fill="#48709B"/>
<path d="M450.196 187.578V209.32L440.616 218.9C438.356 221.16 435.29 222.43 432.093 222.43H330.801C327.604 222.43 324.539 221.16 322.278 218.9L312.698 209.32V187.578H450.196Z" fill="#304E75"/>
<path d="M330.801 210.374L312.697 192.27V90.9785L330.801 72.8745H432.092L450.196 90.9785V192.27L432.092 210.374H330.801Z" fill="#E4EAF6"/>
<path d="M450.196 166.541V192.268L432.095 210.37H330.801L312.7 192.268V166.541L330.801 184.642H432.095L450.196 166.541Z" fill="#C7CFE2"/>
<path d="M504.5 187.578H473.873V227.177L491.981 245.285H504.5V187.578Z" fill="#48709B"/>
<path d="M504.5 187.578H473.873V209.32L483.453 218.9C485.713 221.16 488.779 222.43 491.976 222.43H504.5V187.578Z" fill="#304E75"/>
<path d="M504.5 72.8745H491.976L473.872 90.9785V192.27L491.976 210.374H504.5V72.8745Z" fill="#E4EAF6"/>
<path d="M504.5 184.642H491.976L473.874 166.541V192.268L491.976 210.37H504.5V184.642Z" fill="#C7CFE2"/>
<path d="M163.601 250.586C165.007 251.993 166.915 252.783 168.904 252.783H270.196C272.185 252.783 274.093 251.993 275.499 250.586L293.603 232.482C295.01 231.076 295.8 229.168 295.8 227.179V90.9782C295.8 88.9892 295.01 87.0812 293.603 85.6752L275.5 67.5701C274.094 66.1631 272.186 65.373 270.197 65.373H215.086C210.944 65.373 207.586 68.7311 207.586 72.8731C207.586 77.0151 210.944 80.3731 215.086 80.3731H267.09L280.801 94.0842V189.163L267.09 202.874H172.011L158.3 189.163V94.0842L172.011 80.3731H180.907C185.049 80.3731 188.407 77.0151 188.407 72.8731C188.407 68.7311 185.049 65.373 180.907 65.373H168.904C166.915 65.373 165.007 66.1631 163.601 67.5701L145.497 85.6742C144.09 87.0802 143.3 88.9882 143.3 90.9772V227.178C143.3 229.167 144.09 231.074 145.497 232.481L163.601 250.586ZM163.602 215.677C165.008 217.084 166.916 217.874 168.905 217.874H270.197C272.186 217.874 274.094 217.084 275.5 215.677L280.801 210.376V224.072L267.09 237.783H172.011L158.301 224.072V210.376L163.602 215.677Z" fill="#231F20"/>
<path d="M163.284 261.413C161.878 260.006 159.97 259.216 157.981 259.216H56.6883C54.6993 259.216 52.7913 260.006 51.3853 261.413L33.2812 279.517C31.8742 280.924 31.0842 282.831 31.0842 284.82V421.021C31.0842 423.01 31.8742 424.917 33.2812 426.324L51.3853 444.428C52.7913 445.835 54.6993 446.625 56.6883 446.625H157.98C159.969 446.625 161.877 445.835 163.283 444.428L181.387 426.324C182.794 424.917 183.584 423.01 183.584 421.021V284.82C183.584 282.831 182.794 280.924 181.387 279.517L163.284 261.413ZM46.0843 287.927L59.7944 274.216H154.873L168.583 287.927V383.005L154.873 396.716H59.7954L46.0853 383.005V287.927H46.0843ZM154.874 431.626H59.7954L46.0853 417.915V404.218L51.3863 409.519C52.7923 410.926 54.7003 411.716 56.6893 411.716H157.981C159.97 411.716 161.878 410.926 163.284 409.519L168.585 404.218V417.915L154.874 431.626Z" fill="#231F20"/>
<path d="M324.689 261.413C323.283 260.006 321.375 259.216 319.386 259.216H283.829C279.687 259.216 276.329 262.574 276.329 266.716C276.329 270.858 279.687 274.216 283.829 274.216H316.279L329.99 287.927V383.005L316.279 396.716H221.201L207.49 383.005V287.927L221.201 274.216H250.011C254.153 274.216 257.512 270.858 257.512 266.716C257.512 262.574 254.153 259.216 250.011 259.216H218.094C216.105 259.216 214.197 260.006 212.791 261.413L194.687 279.517C193.28 280.923 192.49 282.831 192.49 284.82V421.021C192.49 423.01 193.28 424.918 194.687 426.324L212.791 444.428C214.197 445.835 216.105 446.625 218.094 446.625H319.386C321.375 446.625 323.283 445.835 324.689 444.428L342.793 426.324C344.2 424.918 344.99 423.01 344.99 421.021V284.82C344.99 282.831 344.2 280.923 342.793 279.517L324.689 261.413ZM316.279 431.626H221.201L207.49 417.915V404.218L212.791 409.519C214.197 410.926 216.105 411.716 218.094 411.716H319.386C321.375 411.716 323.283 410.926 324.689 409.519L329.99 404.218V417.915L316.279 431.626Z" fill="#231F20"/>
<path d="M506.886 284.821C506.886 282.832 506.096 280.925 504.689 279.518L486.585 261.414C485.179 260.007 483.271 259.217 481.282 259.217H379.99C378.001 259.217 376.093 260.007 374.687 261.414L356.583 279.518C355.176 280.925 354.386 282.832 354.386 284.821V421.022C354.386 423.011 355.176 424.918 356.583 426.325L374.687 444.429C376.093 445.836 378.001 446.626 379.99 446.626H399.91C404.052 446.626 407.41 443.268 407.41 439.126C407.41 434.984 404.052 431.626 399.91 431.626H383.097L369.387 417.914V404.218L374.688 409.519C376.094 410.926 378.002 411.716 379.991 411.716H481.283C483.272 411.716 485.18 410.926 486.586 409.519L491.887 404.218V417.914L478.176 431.626H434.089C429.947 431.626 426.588 434.984 426.588 439.126C426.588 443.268 429.947 446.626 434.089 446.626H481.282C483.271 446.626 485.179 445.836 486.585 444.429L504.689 426.325C506.096 424.919 506.886 423.011 506.886 421.022V284.821ZM491.886 383.005L478.176 396.716H383.097L369.387 383.005V287.927L383.097 274.216H478.176L491.886 287.927V383.005Z" fill="#231F20"/>
<path d="M182.459 117.004L197.505 173.167C198.383 176.446 201.355 178.726 204.75 178.726C208.145 178.726 211.116 176.446 211.995 173.167L219.796 144.046L227.597 173.167C228.475 176.446 231.447 178.726 234.842 178.726C238.237 178.726 241.208 176.446 242.087 173.167L257.133 117.004C258.205 113.003 255.83 108.89 251.829 107.818C247.831 106.748 243.716 109.12 242.643 113.122L234.842 142.243L227.041 113.122C226.163 109.843 223.191 107.563 219.796 107.563C216.401 107.563 213.43 109.843 212.551 113.122L204.75 142.243L196.949 113.122C195.877 109.121 191.765 106.748 187.763 107.818C183.762 108.891 181.388 113.003 182.459 117.004Z" fill="#231F20"/>
<path d="M90.3475 369.765C94.3505 370.836 98.4605 368.463 99.5335 364.461L101.95 355.44H112.719L115.136 364.461C116.034 367.812 119.064 370.022 122.376 370.022C123.019 370.022 123.672 369.939 124.322 369.765C128.323 368.693 130.698 364.58 129.627 360.579L114.58 304.416C113.702 301.137 110.73 298.857 107.335 298.857C103.94 298.857 100.969 301.137 100.09 304.416L85.0445 360.579C83.9725 364.581 86.3465 368.693 90.3475 369.765ZM108.7 340.44H105.969L107.334 335.34L108.7 340.44Z" fill="#231F20"/>
<path d="M432.792 298.858H418.704C414.562 298.858 411.204 302.216 411.204 306.358V362.521C411.204 366.663 414.562 370.021 418.704 370.021H432.792C442.318 370.021 450.068 362.271 450.068 352.746V316.134C450.067 306.607 442.317 298.858 432.792 298.858ZM435.067 352.745C435.067 354 434.046 355.02 432.791 355.02H426.203V313.857H432.791C434.046 313.857 435.067 314.878 435.067 316.132V352.745Z" fill="#231F20"/>
<path d="M274.186 313.858C274.374 317.833 277.656 320.998 281.678 320.998C285.82 320.998 289.178 317.64 289.178 313.498V310.826C289.178 304.227 283.809 298.858 277.21 298.858H260.27C253.671 298.858 248.302 304.227 248.302 310.826V329.971C248.302 336.57 253.671 341.939 260.27 341.939H274.178V355.021H263.293C263.105 351.046 259.823 347.88 255.801 347.88C251.659 347.88 248.301 351.238 248.301 355.38V358.052C248.301 364.651 253.67 370.02 260.269 370.02H277.209C283.808 370.02 289.177 364.651 289.177 358.052V338.907C289.177 332.308 283.808 326.939 277.209 326.939H263.301V313.858H274.186V313.858Z" fill="#231F20"/>
<path d="M149.211 298.633C153.353 298.633 156.711 295.275 156.711 291.133V290.271C156.711 286.129 153.353 282.771 149.211 282.771C145.069 282.771 141.711 286.129 141.711 290.271V291.133C141.711 295.275 145.069 298.633 149.211 298.633Z" fill="#231F20"/>
<path d="M319.439 291.133V290.271C319.439 286.129 316.081 282.771 311.939 282.771C307.797 282.771 304.439 286.129 304.439 290.271V291.133C304.439 295.275 307.797 298.633 311.939 298.633C316.081 298.633 319.439 295.275 319.439 291.133Z" fill="#231F20"/>
<path d="M467.165 290.271V291.133C467.165 295.275 470.523 298.633 474.665 298.633C478.807 298.633 482.165 295.275 482.165 291.133V290.271C482.165 286.129 478.807 282.771 474.665 282.771C470.523 282.771 467.165 286.129 467.165 290.271Z" fill="#231F20"/>
<path d="M114.095 250.586L132.199 232.482C133.606 231.075 134.396 229.168 134.396 227.179V90.9782C134.396 88.9892 133.606 87.0812 132.199 85.6752L114.095 67.5701C112.689 66.1631 110.781 65.373 108.792 65.373H7.50004C3.35802 65.373 0 68.7311 0 72.8731C0 77.0151 3.35802 80.3731 7.50004 80.3731H105.685L119.396 94.0842V189.163L105.685 202.874H7.50004C3.35802 202.874 0 206.232 0 210.374C0 214.516 3.35802 217.874 7.50004 217.874H108.792C110.781 217.874 112.689 217.084 114.095 215.677L119.396 210.376V224.072L105.686 237.783H7.50004C3.35802 237.783 0 241.141 0 245.283C0 249.425 3.35802 252.783 7.50004 252.783H108.792C110.781 252.783 112.689 251.993 114.095 250.586Z" fill="#231F20"/>
<path d="M325.498 250.587C326.904 251.994 328.812 252.784 330.801 252.784H432.093C434.082 252.784 435.99 251.994 437.396 250.587L455.5 232.483C456.907 231.076 457.697 229.168 457.697 227.179V90.9787C457.697 88.9897 456.907 87.0827 455.5 85.6757L437.397 67.5705C435.991 66.1635 434.083 65.3735 432.094 65.3735H330.801C328.812 65.3735 326.904 66.1635 325.498 67.5705L307.394 85.6747C305.987 87.0817 305.197 88.9887 305.197 90.9777V227.178C305.197 229.167 305.987 231.074 307.394 232.482L325.498 250.587ZM428.987 237.784H333.908L320.198 224.072V210.376L325.499 215.677C326.905 217.084 328.813 217.874 330.802 217.874H432.093C434.082 217.874 435.99 217.084 437.396 215.677L442.697 210.376V224.072L428.987 237.784ZM320.197 94.0847L333.907 80.3736H428.986L442.696 94.0847V189.163L428.986 202.874H333.907L320.197 189.163V94.0847Z" fill="#231F20"/>
<path d="M486.673 215.677C488.079 217.084 489.987 217.874 491.976 217.874H504.499C508.641 217.874 511.999 214.516 511.999 210.374C511.999 206.232 508.641 202.874 504.499 202.874H495.082L481.372 189.163V94.0847L495.082 80.3736H504.499C508.641 80.3736 511.999 77.0156 511.999 72.8736C511.999 68.7316 508.641 65.3735 504.499 65.3735H491.976C489.987 65.3735 488.079 66.1635 486.673 67.5705L468.569 85.6747C467.162 87.0817 466.372 88.9887 466.372 90.9777V227.178C466.372 229.167 467.162 231.074 468.569 232.482L486.673 250.586C488.079 251.993 489.987 252.783 491.976 252.783H504.499C508.641 252.783 511.999 249.425 511.999 245.283C511.999 241.141 508.641 237.783 504.499 237.783H495.082L481.372 224.071V210.375L486.673 215.677Z" fill="#231F20"/>
<path d="M107.522 97.291V96.429C107.522 92.287 104.164 88.929 100.022 88.929C95.88 88.929 92.522 92.287 92.522 96.429V97.291C92.522 101.433 95.88 104.791 100.022 104.791C104.164 104.791 107.522 101.433 107.522 97.291Z" fill="#231F20"/>
<path d="M262.749 104.792C266.891 104.792 270.249 101.434 270.249 97.2917V96.4297C270.249 92.2877 266.891 88.9297 262.749 88.9297C258.607 88.9297 255.249 92.2877 255.249 96.4297V97.2917C255.249 101.434 258.607 104.792 262.749 104.792Z" fill="#231F20"/>
<path d="M425.476 104.792C429.618 104.792 432.976 101.434 432.976 97.2917V96.4297C432.976 92.2877 429.618 88.9297 425.476 88.9297C421.334 88.9297 417.976 92.2877 417.976 96.4297V97.2917C417.976 101.434 421.334 104.792 425.476 104.792Z" fill="#231F20"/>
</svg>
