<svg width="512" height="512" viewBox="0 0 512 512" fill="none" xmlns="http://www.w3.org/2000/svg">
<g clip-path="url(#clip0)">
<path d="M477.867 119.467C477.867 100.617 462.584 85.334 443.734 85.334H68.267C49.417 85.334 34.134 100.617 34.134 119.467V375.467H477.867V119.467ZM452.267 349.867H59.733V110.933H452.266V349.867H452.267Z" fill="#E6E7E8"/>
<path d="M42.667 426.667H469.334C488.184 426.667 503.467 411.384 503.467 392.534V375.467H8.53296V392.534C8.53296 411.383 23.817 426.667 42.667 426.667Z" fill="#E6E7E8"/>
<path d="M452.266 110.933H59.7329V349.866H452.266V110.933Z" fill="#006DF0"/>
<path d="M503.467 366.933H486.4V119.467C486.374 95.915 467.285 76.826 443.733 76.8H68.267C44.715 76.826 25.626 95.915 25.6 119.467V366.934H8.533C3.823 366.934 0 370.757 0 375.467V392.534C0.026 416.086 19.115 435.175 42.667 435.201H469.334C492.886 435.175 511.975 416.086 512.001 392.534V375.467C512 370.756 508.177 366.933 503.467 366.933ZM42.667 119.467C42.667 105.327 54.127 93.867 68.267 93.867H443.734C457.874 93.867 469.334 105.327 469.334 119.467V366.934H42.667V119.467ZM494.933 392.533C494.933 406.673 483.473 418.133 469.333 418.133H42.667C28.527 418.133 17.067 406.673 17.067 392.533V384H494.934V392.533H494.933Z" fill="#231F20"/>
<path d="M452.267 102.4H59.733C55.023 102.4 51.2 106.223 51.2 110.933V349.866C51.2 354.576 55.023 358.399 59.733 358.399H452.266C456.976 358.399 460.799 354.576 460.799 349.866V110.933C460.8 106.223 456.977 102.4 452.267 102.4ZM443.733 341.333H68.2669V119.467H443.734V341.333H443.733Z" fill="#231F20"/>
</g>
<defs>
<clipPath id="clip0">
<rect width="512" height="512" fill="white"/>
</clipPath>
</defs>
</svg>
