<svg width="105" height="56" viewBox="0 0 105 56" fill="none" xmlns="http://www.w3.org/2000/svg">
<path d="M9.27258 26.184L7.72458 39H1.31658L5.38458 12.54L16.1486 27.876L26.8766 12.54L30.9806 39H24.5366L23.0246 26.184L16.1486 36.66L9.27258 26.184ZM62.5391 39L60.1631 34.14H52.1711L49.8311 39H42.9191L56.2031 12.216L69.4511 39H62.5391ZM56.2031 23.088L53.3951 29.496H58.9751L56.2031 23.088ZM96.7157 13.8H104.276L96.3557 26.076L104.78 39H97.2557L92.6477 30.648L87.8957 39H80.3717L89.0117 26.076L81.2717 13.8H88.7957L92.7197 21.108L96.7157 13.8Z" fill="white"/>
<path d="M3.76206 49.05C3.76206 49.7753 3.92073 50.3987 4.23806 50.92C4.56673 51.4413 5.00306 51.8437 5.54706 52.127C6.09106 52.399 6.6804 52.535 7.31506 52.535C8.15373 52.535 8.8564 52.3763 9.42306 52.059C10.0011 51.7417 10.4827 51.3733 10.8681 50.954V54.082C10.3921 54.4447 9.87073 54.7337 9.30406 54.949C8.7374 55.1643 8.01773 55.272 7.14506 55.272C5.87573 55.272 4.74806 55.0113 3.76206 54.49C2.77606 53.9687 2.0054 53.2433 1.45006 52.314C0.894729 51.3733 0.617063 50.2853 0.617063 49.05C0.617063 47.8147 0.894729 46.7323 1.45006 45.803C2.0054 44.8623 2.77606 44.1313 3.76206 43.61C4.74806 43.0887 5.87573 42.828 7.14506 42.828C8.01773 42.828 8.7374 42.9357 9.30406 43.151C9.87073 43.3663 10.3921 43.6553 10.8681 44.018V47.146C10.4827 46.7153 10.0011 46.347 9.42306 46.041C8.8564 45.7237 8.15373 45.565 7.31506 45.565C6.6804 45.565 6.09106 45.7067 5.54706 45.99C5.00306 46.262 4.56673 46.6587 4.23806 47.18C3.92073 47.69 3.76206 48.3133 3.76206 49.05ZM12.5204 49.05C12.5204 48.132 12.679 47.2933 12.9964 46.534C13.325 45.7747 13.7784 45.1173 14.3564 44.562C14.9457 44.0067 15.6257 43.5817 16.3964 43.287C17.1784 42.981 18.0227 42.828 18.9294 42.828C19.8474 42.828 20.6974 42.981 21.4794 43.287C22.2614 43.5817 22.9357 44.0067 23.5024 44.562C24.0804 45.1173 24.528 45.7747 24.8454 46.534C25.1741 47.2933 25.3384 48.132 25.3384 49.05C25.3384 49.968 25.1797 50.8123 24.8624 51.583C24.5564 52.3537 24.1144 53.0223 23.5364 53.589C22.9584 54.1557 22.2784 54.5977 21.4964 54.915C20.7257 55.221 19.87 55.374 18.9294 55.374C18 55.374 17.1444 55.221 16.3624 54.915C15.5804 54.5977 14.9004 54.1557 14.3224 53.589C13.7444 53.0223 13.2967 52.3537 12.9794 51.583C12.6734 50.8123 12.5204 49.968 12.5204 49.05ZM15.5634 49.05C15.5634 49.7527 15.6994 50.376 15.9714 50.92C16.2547 51.4527 16.6514 51.872 17.1614 52.178C17.6714 52.484 18.2607 52.637 18.9294 52.637C19.6094 52.637 20.1987 52.484 20.6974 52.178C21.196 51.872 21.5814 51.4527 21.8534 50.92C22.1367 50.376 22.2784 49.7527 22.2784 49.05C22.2784 48.3473 22.1424 47.7297 21.8704 47.197C21.5984 46.653 21.213 46.228 20.7144 45.922C20.2157 45.616 19.6207 45.463 18.9294 45.463C18.2607 45.463 17.6714 45.616 17.1614 45.922C16.6514 46.228 16.2547 46.653 15.9714 47.197C15.6994 47.7297 15.5634 48.3473 15.5634 49.05ZM30.2393 48.948L29.5083 55H26.4823L28.4033 42.505L33.4863 49.747L38.5523 42.505L40.4903 55H37.4473L36.7333 48.948L33.4863 53.895L30.2393 48.948ZM42.3029 43.1H46.4339C47.9526 43.1 49.1029 43.4457 49.8849 44.137C50.6669 44.8283 51.0579 45.7803 51.0579 46.993C51.0579 48.1943 50.6669 49.1463 49.8849 49.849C49.1029 50.5403 47.9526 50.886 46.4339 50.886H45.1759V55H42.3029V43.1ZM46.4339 45.463H45.1759V48.506H46.4339C47.0119 48.506 47.4653 48.3757 47.7939 48.115C48.1226 47.8543 48.2869 47.4803 48.2869 46.993C48.2869 46.4943 48.1226 46.1147 47.7939 45.854C47.4653 45.5933 47.0119 45.463 46.4339 45.463ZM52.8097 43.1H55.6827V50.886C55.6827 51.4867 55.8414 51.974 56.1587 52.348C56.4761 52.722 56.9521 52.909 57.5867 52.909C58.2214 52.909 58.6974 52.722 59.0147 52.348C59.3434 51.974 59.5077 51.4867 59.5077 50.886V43.1H62.3807V51.09C62.3807 52.0873 62.1654 52.9147 61.7347 53.572C61.3154 54.218 60.7431 54.6997 60.0177 55.017C59.2924 55.3343 58.4821 55.493 57.5867 55.493C56.6914 55.493 55.8811 55.3343 55.1557 55.017C54.4417 54.6997 53.8694 54.218 53.4387 53.572C53.0194 52.9147 52.8097 52.0873 52.8097 51.09V43.1ZM63.6246 45.684V43.1H73.0426V45.684H69.7786V55H66.8886V45.684H63.6246ZM74.3439 43.1H82.2489V45.463H77.1149V47.588H81.9089V49.917H77.1149V52.637H82.2489V55H74.3439V43.1ZM84.5871 43.1H88.9221C90.4408 43.1 91.5911 43.4627 92.3731 44.188C93.1664 44.9133 93.5631 45.8483 93.5631 46.993C93.5631 47.809 93.3591 48.5287 92.9511 49.152C92.5544 49.764 91.9651 50.2173 91.1831 50.512L94.2771 55H90.8941L88.3441 50.886H87.4601V55H84.5871V43.1ZM88.7181 45.548H87.4601V48.642H88.7181C89.2961 48.642 89.7494 48.506 90.0781 48.234C90.4068 47.962 90.5711 47.5823 90.5711 47.095C90.5711 46.5963 90.4068 46.2167 90.0781 45.956C89.7494 45.684 89.2961 45.548 88.7181 45.548ZM96.9029 50.818C97.2656 51.464 97.6906 51.9797 98.1779 52.365C98.6766 52.739 99.2263 52.926 99.8269 52.926C100.258 52.926 100.603 52.824 100.864 52.62C101.136 52.4047 101.272 52.1157 101.272 51.753C101.272 51.4583 101.193 51.2147 101.034 51.022C100.875 50.8293 100.62 50.648 100.269 50.478C99.9289 50.308 99.4699 50.1153 98.8919 49.9C98.5973 49.7867 98.2686 49.6393 97.9059 49.458C97.5433 49.2767 97.1919 49.0443 96.8519 48.761C96.5233 48.4777 96.2513 48.132 96.0359 47.724C95.8206 47.3047 95.7129 46.806 95.7129 46.228C95.7129 45.514 95.8943 44.9077 96.2569 44.409C96.6309 43.899 97.1296 43.508 97.7529 43.236C98.3876 42.964 99.0903 42.828 99.8609 42.828C100.666 42.828 101.357 42.9583 101.935 43.219C102.513 43.4797 102.995 43.8083 103.38 44.205C103.765 44.6017 104.06 45.004 104.264 45.412L102.071 46.636C101.81 46.2053 101.499 45.8653 101.136 45.616C100.773 45.3553 100.36 45.225 99.8949 45.225C99.4869 45.225 99.1753 45.3157 98.9599 45.497C98.7559 45.667 98.6539 45.8823 98.6539 46.143C98.6539 46.551 98.8806 46.8853 99.3339 47.146C99.7986 47.3953 100.445 47.6673 101.272 47.962C101.827 48.1547 102.332 48.4153 102.785 48.744C103.25 49.0613 103.618 49.458 103.89 49.934C104.173 50.3987 104.315 50.9597 104.315 51.617C104.315 52.4217 104.105 53.1073 103.686 53.674C103.267 54.2293 102.717 54.6543 102.037 54.949C101.368 55.2323 100.66 55.374 99.9119 55.374C99.1413 55.374 98.4216 55.238 97.7529 54.966C97.0956 54.6827 96.5176 54.3087 96.0189 53.844C95.5316 53.368 95.1576 52.841 94.8969 52.263L96.9029 50.818Z" fill="white"/>
</svg>
