<svg width="480" height="480" viewBox="0 0 480 480" fill="none" xmlns="http://www.w3.org/2000/svg">
<path d="M48 384H176V368C176.026 359.174 183.174 352.026 192 352C200.809 352.065 207.935 359.191 208 368V384H432V320H48V384Z" fill="#FFA733"/>
<path d="M456 96H24C15.163 96 8 103.163 8 112V176C16.837 176 24 183.163 24 192C24 200.837 16.837 208 8 208V320H472V208C463.163 208 456 200.837 456 192C456 183.163 463.163 176 472 176V112C472 103.163 464.837 96 456 96ZM128 272H64V144H128V272ZM224 272H160V144H224V272ZM320 272H256V144H320V272ZM416 272H352V144H416V272Z" fill="#5EAC24"/>
<path d="M160 144H224V272H160V144Z" fill="#FFB655"/>
<path d="M256 144H320V272H256V144Z" fill="#FFB655"/>
<path d="M64 144H128V272H64V144Z" fill="#FFB655"/>
<path d="M352 144H416V272H352V144Z" fill="#FFB655"/>
<path d="M232 280H152V136H232V280ZM168 264H216V152H168V264Z" fill="#231F20"/>
<path d="M328 280H248V136H328V280ZM264 264H312V152H264V264Z" fill="#231F20"/>
<path d="M136 280H56V136H136V280ZM72 264H120V152H72V264Z" fill="#231F20"/>
<path d="M424 280H344V136H424V280ZM360 264H408V152H360V264Z" fill="#231F20"/>
<path d="M472 184C476.418 184 480 180.418 480 176V112C480 98.745 469.255 88 456 88H24C10.745 88 0 98.745 0 112V176C0 180.418 3.582 184 8 184C12.418 184 16 187.582 16 192C16 196.418 12.418 200 8 200C3.582 200 0 203.582 0 208V320C0 324.418 3.582 328 8 328H40V384C40 388.418 43.582 392 48 392H176C180.418 392 184 388.418 184 384V368C184 363.582 187.582 360 192 360C194.158 359.993 196.223 360.879 197.704 362.448C199.188 363.913 200.016 365.915 200 368V384C200 388.418 203.582 392 208 392H432C436.418 392 440 388.418 440 384V328H472C476.418 328 480 324.418 480 320V208C480 203.582 476.418 200 472 200C467.582 200 464 196.418 464 192C464 187.582 467.582 184 472 184ZM424 376H408V344H392V376H376V344H360V376H344V344H328V376H312V344H296V376H280V344H264V376H248V344H232V376H216V368C215.943 354.769 205.231 344.057 192 344C178.745 344 168 354.745 168 368V376H152V344H136V376H120V344H104V376H88V344H72V376H56V328H424V376ZM464 169.368C451.501 173.779 444.944 187.488 449.355 199.987C451.771 206.832 457.155 212.216 464 214.632V312H16V214.632C28.499 210.221 35.056 196.512 30.645 184.013C28.229 177.168 22.845 171.784 16 169.368V112C16 107.582 19.582 104 24 104H456C460.418 104 464 107.582 464 112V169.368Z" fill="#231F20"/>
</svg>
