<svg width="97" height="106" viewBox="0 0 97 106" fill="none" xmlns="http://www.w3.org/2000/svg">
<path fill-rule="evenodd" clip-rule="evenodd" d="M18.6667 81.6747C8.35867 81.6747 0 86.108 0 91.5733C0 97.0387 8.35867 101.472 18.6667 101.472C28.9747 101.472 37.3347 97.0387 37.3347 91.5733C37.3347 86.108 28.9747 81.6747 18.6667 81.6747Z" fill="#C2D8F2"/>
<path fill-rule="evenodd" clip-rule="evenodd" d="M2.16934 72.4573L59.896 105.381L96.1773 84.2346L38.3893 51.364L2.16934 72.4573" fill="#C2D8F2"/>
<path fill-rule="evenodd" clip-rule="evenodd" d="M8.56934 28.8839L12.4347 29.6346L11.7093 75.092C11.6973 75.8786 9.35866 75.9026 9.34533 75.1146L8.56934 28.8839Z" fill="#CD8418"/>
<path fill-rule="evenodd" clip-rule="evenodd" d="M40.896 10.1106L44.7613 10.8627L44.036 56.32C44.024 57.1066 41.6853 57.1293 41.672 56.3427L40.896 10.1106Z" fill="#CD8418"/>
<path fill-rule="evenodd" clip-rule="evenodd" d="M52.852 54.004L56.7173 54.7547L55.992 100.212C55.9787 101 53.6413 101.023 53.628 100.235L52.852 54.004Z" fill="#CD8418"/>
<path fill-rule="evenodd" clip-rule="evenodd" d="M85.1786 35.2306L89.044 35.9813L88.3187 81.44C88.3067 82.2266 85.968 82.2506 85.9547 81.4626L85.1786 35.2306" fill="#CD8418"/>
<path fill-rule="evenodd" clip-rule="evenodd" d="M4.724 28.784L59.3133 59.9186L93.6227 39.9213V37.8653L4.724 26.728V28.784" fill="#28292A"/>
<path fill-rule="evenodd" clip-rule="evenodd" d="M4.724 26.7293L59.3133 57.8627L93.6227 37.8653L38.9747 6.78132L4.724 26.7293Z" fill="#3E4042"/>
<path fill-rule="evenodd" clip-rule="evenodd" d="M93.6227 37.8653L59.3133 57.8626V59.9173L93.704 40.0626L93.6227 37.8653" fill="#141415"/>
<path fill-rule="evenodd" clip-rule="evenodd" d="M35.1266 74.136C36.4306 75.0573 35.6373 77.82 34.2626 78.2853C31.14 79.3413 28.788 80.6533 26.728 81.3213C25.9973 81.5586 24.26 81.776 23.5253 80.4226C23.344 79.9013 24.4893 77.9786 24.4893 77.9786C28.16 78.376 33.5026 73.2413 35.1266 74.136Z" fill="#79829A"/>
<path fill-rule="evenodd" clip-rule="evenodd" d="M30.8493 74.3573C32.464 74.7653 33.8373 73.632 34.3773 73.7173C34.808 73.7813 35.404 74.224 35.528 74.8973C35.7387 76.02 35.116 77.148 34.1133 77.6493C33.036 78.1853 31.808 77.94 29.9827 78.6746C28.98 79.0786 26.524 80.5093 25.6 80.5226C24.6707 80.5373 23.8827 79.932 23.7933 79.2426C23.86 75.076 27.7547 73.576 30.8493 74.3573" fill="#243144"/>
<path fill-rule="evenodd" clip-rule="evenodd" d="M23.988 77.808C26.216 79.8986 28.5547 79.2119 29.9027 76.2439C29.956 71.5186 32.4947 61.6106 34.1173 55.536C35.0667 51.7853 29.0427 49.8253 26.9547 54.68C24.3707 60.076 24.244 75.6173 23.988 77.808" fill="#2C58A2"/>
<path fill-rule="evenodd" clip-rule="evenodd" d="M11.1307 89.448L8.64932 84.8947L9.94665 84.188L9.94799 84.1907L10.052 84.1293C10.844 83.7253 12.0147 84.432 12.6667 85.7067C13.3147 86.9747 13.2067 88.3267 12.428 88.7414L12.4133 88.7493L11.1307 89.448" fill="#4B546C"/>
<path fill-rule="evenodd" clip-rule="evenodd" d="M8.42001 87.924C7.76801 86.648 7.88268 85.2853 8.67468 84.8813C9.46668 84.476 10.6373 85.1826 11.2893 86.4573C11.94 87.7333 11.8267 89.096 11.0347 89.5C10.2427 89.9053 9.07201 89.2 8.42001 87.924Z" fill="#2F3448"/>
<path fill-rule="evenodd" clip-rule="evenodd" d="M8.70401 87.7787C8.18134 86.756 8.27334 85.6627 8.90801 85.3387C9.54268 85.0147 10.4827 85.58 11.0053 86.6027C11.528 87.6267 11.436 88.7187 10.8013 89.0427C10.1653 89.368 9.22667 88.8013 8.70401 87.7787Z" fill="#B2BCDD"/>
<path fill-rule="evenodd" clip-rule="evenodd" d="M9.14133 87.5453C8.71999 86.7213 8.74398 85.848 9.16532 85.4706C9.72532 85.3173 10.4707 85.8133 10.9013 86.6546C11.3213 87.4786 11.2973 88.352 10.8747 88.7306C10.316 88.8826 9.57066 88.3866 9.14133 87.5453" fill="#7A87AE"/>
<path fill-rule="evenodd" clip-rule="evenodd" d="M28.388 99.4973L25.9053 94.944L27.2027 94.236L27.2053 94.24L27.308 94.1786C28.1013 93.7733 29.272 94.48 29.924 95.756C30.5707 97.0226 30.4627 98.376 29.6853 98.7906L29.6693 98.7986L28.388 99.4973" fill="#4B546C"/>
<path fill-rule="evenodd" clip-rule="evenodd" d="M25.6773 97.972C25.0253 96.6973 25.1387 95.3346 25.9307 94.9293C26.7227 94.524 27.8947 95.2307 28.5453 96.5067C29.1973 97.7813 29.084 99.1453 28.292 99.5493C27.5 99.9546 26.328 99.248 25.6773 97.972Z" fill="#2F3448"/>
<path fill-rule="evenodd" clip-rule="evenodd" d="M25.9613 97.8266C25.4387 96.804 25.5293 95.712 26.1653 95.388C26.8 95.0626 27.7387 95.6293 28.2613 96.652C28.784 97.6746 28.6933 98.7666 28.0573 99.092C27.4227 99.416 26.484 98.8493 25.9613 97.8266" fill="#B2BCDD"/>
<path fill-rule="evenodd" clip-rule="evenodd" d="M26.3973 97.5933C25.9773 96.7693 26 95.8973 26.4227 95.5186C26.9813 95.3666 27.728 95.8613 28.1587 96.704C28.5787 97.5266 28.5547 98.4013 28.132 98.7786C27.5733 98.9319 26.828 98.4359 26.3973 97.5933Z" fill="#7A87AE"/>
<path fill-rule="evenodd" clip-rule="evenodd" d="M9.74933 81.8773L19.872 86.024L29.088 93.0587V95.2013L28.7467 95.3973V93.2547L17.6827 87.232L9.408 82.0747L9.74933 81.8773" fill="#E7EFFA"/>
<path fill-rule="evenodd" clip-rule="evenodd" d="M9.408 82.0747L17.6827 87.232L28.7467 93.2547V95.3973L17.6653 89.5613L9.408 84.2173V82.0747Z" fill="#B2BCDD"/>
<path fill-rule="evenodd" clip-rule="evenodd" d="M27.2133 89.448L29.6947 84.8947L28.3973 84.188L28.396 84.1907L28.292 84.1293C27.5 83.7253 26.328 84.432 25.6773 85.7067C25.0293 86.9747 25.1373 88.3267 25.916 88.7414L25.9307 88.7493L27.2133 89.448" fill="#4B546C"/>
<path fill-rule="evenodd" clip-rule="evenodd" d="M29.924 87.924C30.576 86.648 30.4613 85.2853 29.6693 84.8813C28.8773 84.476 27.7067 85.1826 27.0547 86.4573C26.4027 87.7333 26.5173 89.096 27.308 89.5C28.1013 89.9053 29.272 89.2 29.924 87.924Z" fill="#2F3448"/>
<path fill-rule="evenodd" clip-rule="evenodd" d="M29.64 87.7787C30.1613 86.756 30.0707 85.6627 29.436 85.3387C28.8 85.0147 27.8613 85.58 27.3387 86.6027C26.816 87.6267 26.908 88.7187 27.5427 89.0427C28.1774 89.368 29.116 88.8013 29.64 87.7787Z" fill="#B2BCDD"/>
<path fill-rule="evenodd" clip-rule="evenodd" d="M29.2027 87.5453C29.6227 86.7213 29.6 85.848 29.1773 85.4706C28.6187 85.3173 27.8734 85.8133 27.4427 86.6546C27.0214 87.4786 27.0453 88.352 27.468 88.7306C28.0267 88.8826 28.772 88.3866 29.2027 87.5453" fill="#7A87AE"/>
<path fill-rule="evenodd" clip-rule="evenodd" d="M9.956 99.4973L12.4387 94.944L11.14 94.236L11.1387 94.24L11.0347 94.1786C10.2427 93.7733 9.072 94.48 8.42 95.756C7.772 97.0226 7.88134 98.376 8.65867 98.7906L8.67467 98.7986L9.956 99.4973" fill="#4B546C"/>
<path fill-rule="evenodd" clip-rule="evenodd" d="M12.6667 97.972C13.3187 96.6973 13.2053 95.3346 12.4133 94.9293C11.62 94.524 10.4493 95.2307 9.79732 96.5067C9.14665 97.7813 9.25999 99.1453 10.052 99.5493C10.844 99.9546 12.0147 99.248 12.6667 97.972Z" fill="#2F3448"/>
<path fill-rule="evenodd" clip-rule="evenodd" d="M12.3827 97.8266C12.9053 96.804 12.8147 95.712 12.1787 95.388C11.544 95.0626 10.6053 95.6293 10.0827 96.652C9.55999 97.6746 9.65066 98.7666 10.2853 99.092C10.9213 99.416 11.86 98.8493 12.3827 97.8266" fill="#B2BCDD"/>
<path fill-rule="evenodd" clip-rule="evenodd" d="M11.9453 97.5933C12.3667 96.7693 12.3427 95.8973 11.9213 95.5186C11.3613 95.3666 10.616 95.8613 10.1853 96.704C9.76533 97.5266 9.78932 98.4013 10.212 98.7786C10.7707 98.9319 11.516 98.4359 11.9453 97.5933Z" fill="#7A87AE"/>
<path fill-rule="evenodd" clip-rule="evenodd" d="M28.5947 81.8773L18.472 86.024L9.25467 93.0587V95.2013L9.59599 95.3973V93.2547L19.172 88.0427L20.6613 87.8627L21.5067 87.272L21.0987 86.96L28.936 82.0747L28.5947 81.8773Z" fill="#E7EFFA"/>
<path fill-rule="evenodd" clip-rule="evenodd" d="M19.172 88.0427L9.59599 93.2547V95.3973L19.172 90.3547V88.0427ZM28.936 82.0747L21.0987 86.96L22.7493 88.22L28.936 84.2173V82.0747" fill="#929EC9"/>
<path fill-rule="evenodd" clip-rule="evenodd" d="M19.172 64.584C19.8013 64.584 20.316 65.1467 20.316 65.832V86.3893C20.316 87.4267 18.028 87.408 18.028 86.3893V65.832C18.028 65.1467 18.5427 64.584 19.172 64.584" fill="#7A87AE"/>
<path fill-rule="evenodd" clip-rule="evenodd" d="M32.6333 67.0306L32.6387 62.4667H5.75867L5.70534 67.1573C5.70534 78.3066 32.6333 78.1786 32.6333 67.0306Z" fill="#28292A"/>
<path fill-rule="evenodd" clip-rule="evenodd" d="M19.1987 70.8133C26.6013 70.8133 32.6387 67.064 32.6387 62.4666C32.6387 57.8693 26.6013 54.1213 19.1987 54.1213C11.796 54.1213 5.75867 57.8693 5.75867 62.4666C5.75867 67.064 11.796 70.8133 19.1987 70.8133Z" fill="#6E7274"/>
<path fill-rule="evenodd" clip-rule="evenodd" d="M19.1987 68.8813C24.8867 68.8813 29.5266 66 29.5266 62.4666C29.528 58.9346 24.8867 56.0533 19.1987 56.0533C13.5107 56.0533 8.86932 58.9346 8.86932 62.4666C8.86932 66 13.5107 68.8813 19.1987 68.8813Z" fill="#3E4042"/>
<path fill-rule="evenodd" clip-rule="evenodd" d="M31.392 31.3266C32.796 30.5493 32.128 29.2546 33.4827 28.5973C33.7667 28.4026 35.832 27.496 36.544 27.5626C37.0173 27.4293 37.4787 30.4546 37.18 30.8866C36.4347 31.496 34.1227 32.3666 33.5813 32.412C33.2653 32.4373 32.408 32.372 31.392 31.3266Z" fill="#ED8F5F"/>
<path fill-rule="evenodd" clip-rule="evenodd" d="M37.024 30.0933L38.9387 30.0654C39.424 30.0574 39.3773 30.624 38.896 30.6813L37.0373 30.904C36.5733 30.96 36.5187 30.1 37.024 30.0933Z" fill="#ED8F5F"/>
<path fill-rule="evenodd" clip-rule="evenodd" d="M36.6107 29.8413V29.84C36.588 29.6026 36.764 29.3906 37.0013 29.3693L39.2493 29.1626C39.8173 29.1093 39.872 29.7533 39.308 29.8506L37.0813 30.232C36.8467 30.272 36.632 30.0787 36.6107 29.8413" fill="#ED8F5F"/>
<path fill-rule="evenodd" clip-rule="evenodd" d="M36.4587 29.0226C36.4467 28.784 36.6293 28.5573 36.8907 28.548L39.3667 28.4533C39.9907 28.4306 40.0493 29.1253 39.4293 29.1826L36.9693 29.4093C36.7107 29.4347 36.48 29.26 36.4587 29.0226" fill="#ED8F5F"/>
<path fill-rule="evenodd" clip-rule="evenodd" d="M36.6787 27.5333L38.952 27.4506C39.5227 27.4293 39.5747 28.136 39.0053 28.188L36.7587 28.396C36.1733 28.4493 36.124 27.5533 36.6787 27.5333" fill="#ED8F5F"/>
<path fill-rule="evenodd" clip-rule="evenodd" d="M32.3987 29.9693C32.328 29.5973 32.5467 29.0147 32.9667 28.524C33.3867 28.036 33.932 27.556 34.1213 27.3693C34.612 26.8867 34.6453 27.024 35.1373 26.5427C35.4293 26.8067 35.72 27.2573 34.7747 28.036C34.6667 28.2773 34.5573 28.456 34.16 28.7453C34.4133 30.516 32.5093 30.696 32.3987 29.9693Z" fill="#F9B185"/>
<path fill-rule="evenodd" clip-rule="evenodd" d="M17.0147 34.3853C20.44 37.2786 28.8787 33.8933 33.196 32.3453C34.0733 32.0306 32.7533 30.152 32.2507 30.176C28.8347 30.344 21.7187 30.2693 18.9 29.564C17.18 29.1333 14.4893 32.2493 17.0147 34.3853" fill="#ED8F5F"/>
<path fill-rule="evenodd" clip-rule="evenodd" d="M21.98 42.284C23.376 42.7426 26.196 39.336 25.4027 37.0693C23.5 33.4013 24.108 30.56 22.9707 29.0093C20.048 24.7453 18.2347 24.504 15.5387 25.5213C13.6973 26.2173 11.476 28.9466 12.7613 31.612C15.224 36.7213 21.98 42.284 21.98 42.284" fill="#B31D23"/>
<path fill-rule="evenodd" clip-rule="evenodd" d="M56.5933 49.9213L56.5493 49.996L56.2587 50.0667L52.28 47.832C51.8586 47.5946 52.276 46.9 52.6826 47.1626L56.52 49.632L56.5933 49.9213Z" fill="#CD8418"/>
<path fill-rule="evenodd" clip-rule="evenodd" d="M62.2307 53.188L62.0787 53.44L56.408 50.0293L56.5587 49.7773L62.2307 53.188Z" fill="#8A8D8D"/>
<path fill-rule="evenodd" clip-rule="evenodd" d="M62.2307 53.188L62.0787 53.44L61.4533 53.0093L61.5547 52.8413L62.2307 53.188" fill="#DFDFDD"/>
<path fill-rule="evenodd" clip-rule="evenodd" d="M36.792 5.69331L55.32 16.308V44.28L36.8093 33.584L36.792 5.69331" fill="#C2C3C1"/>
<path fill-rule="evenodd" clip-rule="evenodd" d="M65.62 10.4547L55.308 16.3094V44.288L65.62 38.4333V10.4547Z" fill="#575A5B"/>
<path fill-rule="evenodd" clip-rule="evenodd" d="M36.7827 5.69467L55.3106 16.308L65.6227 10.4533L47.0827 7.07555e-06L36.7827 5.69467Z" fill="#E6E7E5"/>
<path fill-rule="evenodd" clip-rule="evenodd" d="M38.1013 10.2893L38.0973 31.6373L53.6493 40.5573V19.208L38.1013 10.2893Z" fill="#828484"/>
<path fill-rule="evenodd" clip-rule="evenodd" d="M38.516 10.5293L38.512 31.384L53.6493 40.0653V19.208L38.516 10.5293Z" fill="#292525"/>
<path fill-rule="evenodd" clip-rule="evenodd" d="M38.5133 31.3613L53.6493 40.0653V29.704L47.116 26.148L38.5147 31.1733L38.5133 31.3613Z" fill="#575A5B"/>
<path fill-rule="evenodd" clip-rule="evenodd" d="M38.5146 20.0573L53.6493 28.5293V19.4L45.04 14.4867L38.516 17.8933L38.5146 20.0573" fill="#8A8D8D"/>
<path fill-rule="evenodd" clip-rule="evenodd" d="M38.5146 19.4106L53.6493 27.8826V19.208L44.7853 14.1466L38.516 17.8093L38.5146 19.4106Z" fill="#575A5B"/>
<path fill-rule="evenodd" clip-rule="evenodd" d="M64.616 13.7519L56.3133 18.4653V20.4773L64.616 15.764V13.7519Z" fill="#8A8D8D"/>
<path fill-rule="evenodd" clip-rule="evenodd" d="M64.616 16.5186L56.3133 21.232V23.2426L64.616 18.5293V16.5186Z" fill="#8A8D8D"/>
<path fill-rule="evenodd" clip-rule="evenodd" d="M64.616 19.284L56.3133 23.9973V26.0093L64.616 21.296V19.284Z" fill="#8A8D8D"/>
<path fill-rule="evenodd" clip-rule="evenodd" d="M64.616 22.5573L56.3133 27.2706V41.268L64.616 36.5546V22.5573Z" fill="#8A8D8D"/>
<path fill-rule="evenodd" clip-rule="evenodd" d="M64.116 23.8L56.9373 27.864V29.368L64.116 25.304V23.8Z" fill="#575A5B"/>
<path fill-rule="evenodd" clip-rule="evenodd" d="M58.0173 27.252L56.9373 27.864V29.368L58.0173 28.756V27.252Z" fill="#292525"/>
<path fill-rule="evenodd" clip-rule="evenodd" d="M64.096 23.7946L63.016 24.4066V25.9106L64.096 25.2986V23.7946Z" fill="#292525"/>
<path fill-rule="evenodd" clip-rule="evenodd" d="M62.796 30.624L58.1333 33.2707V41.1306L62.796 38.484V30.624Z" fill="#575A5B"/>
<path d="M43.956 32.5746L43.7213 32.5466C43.7613 32.2266 43.8027 31.9333 43.8413 31.66C44.136 29.5666 44.2573 28.7 42.156 27.1226C39.9733 25.4853 39.8947 22.6866 39.8187 19.9786C39.7573 17.7653 39.6933 15.476 38.5253 13.7373L38.7213 13.6053C39.9267 15.4013 39.992 17.7253 40.0547 19.972C40.132 22.7453 40.2053 25.3653 42.2973 26.9346C44.5107 28.596 44.3733 29.5653 44.0747 31.692C44.036 31.9653 43.9947 32.2573 43.956 32.5746" fill="#FBC617"/>
<path d="M45.3373 32.1906H45.1027C45.1027 30.104 43.9453 29.312 42.8267 28.5466C41.5867 27.6986 40.3053 26.8213 40.6827 24.2453C41.1173 21.2866 40.9093 15.0933 38.4507 13.4813L38.58 13.2853C41.1267 14.9546 41.3587 21.2693 40.916 24.2786C40.5587 26.7093 41.7253 27.508 42.96 28.352C44.1293 29.152 45.3373 29.9786 45.3373 32.1906Z" fill="#6A8ACE"/>
<path d="M42.8973 31.5H42.6613C42.6613 30.8933 42.8707 30.3306 43.092 29.7346C43.3867 28.94 43.692 28.1186 43.4933 27.1453C43.348 26.4319 42.9226 25.776 42.512 25.1426C42.0213 24.3853 41.556 23.6693 41.556 22.88C41.556 18.4 41.556 16.556 38.4973 13.1626L38.672 13.0053C41.792 16.4653 41.792 18.336 41.792 22.8546C41.792 23.6 42.2387 24.288 42.7093 25.0146C43.132 25.6666 43.5693 26.3413 43.7227 27.0973C43.936 28.1373 43.6186 28.992 43.312 29.8173C43.0986 30.3933 42.8973 30.936 42.8973 31.5" fill="#EE252C"/>
<path d="M44.7547 18.1093C44.4453 18.1093 44.116 18.0573 43.772 17.952C42.3933 17.528 41.008 16.2973 40.6173 15.1506C40.5067 14.8226 40.396 14.4053 40.2693 13.9213C40.044 13.0653 39.7627 11.9986 39.3773 11.132L39.592 11.036C39.9853 11.92 40.2693 12.996 40.4973 13.8613C40.624 14.3413 40.732 14.7546 40.84 15.0746C41.2093 16.1573 42.5267 17.3226 43.8413 17.7266C44.356 17.884 45.068 17.9853 45.7053 17.6546C43.704 17.3573 41.5 16.0373 41.0973 13.7026C40.984 13.0506 40.7147 12.3653 40.2947 11.6666L40.496 11.5453C40.9307 12.2693 41.212 12.9813 41.3293 13.6626C41.7333 16.0053 44.064 17.2733 46.0587 17.4613L46.3613 17.4893L46.1187 17.672C45.7333 17.964 45.272 18.1093 44.7547 18.1093" fill="#6A8ACE"/>
<path d="M45.2653 16.7746C42.24 16.7746 40.5133 14.1479 40.1427 11.5453L40.376 11.5119C40.732 14.0133 42.3813 16.5386 45.2653 16.5386V16.7746Z" fill="#EE252C"/>
<path fill-rule="evenodd" clip-rule="evenodd" d="M43.676 18.0493L53.6493 23.7626V26.9026L43.688 21.148L43.676 18.0493" fill="#8A8D8D"/>
<path fill-rule="evenodd" clip-rule="evenodd" d="M43.6707 18.0493L53.6493 23.7653V19.208L47.7133 15.8027L43.6707 18.0493Z" fill="#575A5B"/>
<path fill-rule="evenodd" clip-rule="evenodd" d="M43.676 14.3613L53.6493 20.0747V23.216L43.688 17.46L43.676 14.3613Z" fill="#8A8D8D"/>
<path fill-rule="evenodd" clip-rule="evenodd" d="M43.6707 14.3613L53.6493 20.0773V19.208L44.448 13.9307L43.6707 14.3613Z" fill="#575A5B"/>
<path fill-rule="evenodd" clip-rule="evenodd" d="M32.9187 51.4054C29.9627 49.1667 19.88 52.328 10.088 55.1747C8.85867 57.3827 7.69333 61.2333 11.3307 64.2627C19.1987 70.8133 24.272 56.4013 31.5787 57.396C34.62 56.708 35.0107 52.988 32.9187 51.4054" fill="#2C58A2"/>
<path fill-rule="evenodd" clip-rule="evenodd" d="M46.7333 63.636C39.3507 58.912 29.9693 56.4347 20.3053 55.5387C18.92 57.7093 16.04 54.0987 13.3947 55.7347C13.196 57.688 10.424 62.6347 15.78 66.3987C21.836 70.652 33.4387 65.4627 42.6587 70.1547C44.492 69.568 48.7373 64.9187 46.7333 63.636Z" fill="#4372C1"/>
<path fill-rule="evenodd" clip-rule="evenodd" d="M51.908 84.4986C53.212 85.4186 52.4186 88.1813 51.044 88.6466C47.9213 89.7026 45.5693 91.0146 43.5093 91.6826C42.7787 91.92 41.0413 92.1373 40.308 90.784C40.1253 90.2626 41.2707 88.3413 41.2707 88.3413C44.9413 88.7373 50.284 83.6026 51.908 84.4986Z" fill="#79829A"/>
<path fill-rule="evenodd" clip-rule="evenodd" d="M47.6307 84.72C49.2547 85.092 50.6187 83.9933 51.1587 84.0786C51.5893 84.1426 52.1853 84.5866 52.3107 85.2586C52.52 86.3813 51.8973 87.5093 50.8947 88.0106C49.8187 88.5466 48.5893 88.3013 46.764 89.036C45.7613 89.4413 43.3067 90.8706 42.3813 90.884C41.4533 90.8986 40.6653 90.2933 40.5747 89.604C40.6413 85.4386 44.0293 83.892 47.6307 84.72" fill="#243144"/>
<path fill-rule="evenodd" clip-rule="evenodd" d="M40.8507 87.7027C42.516 89.536 45.7787 87.648 46.6173 84.548C46.3347 80.2453 46.7227 72.3453 47.5493 66.2093C48.0933 62.1774 41.0413 61.4347 39.7867 66.4893C39.0907 71.2093 40.7387 85.4987 40.8507 87.7027Z" fill="#4372C1"/>
<path fill-rule="evenodd" clip-rule="evenodd" d="M30.8093 40.4267C29.9067 43.8453 28.996 45.336 28.1933 47.9853C27.6347 49.8293 27.8587 54.8227 26.712 56.2347C27.4307 60.632 14.036 59.512 9.07999 56.028C7.36 53.8827 9.30267 50.052 9.55867 45.5747C9.78534 41.624 10.292 37.0493 10.7187 33.7587C11.2187 29.92 14.328 24.6507 19.6267 25.476C21.9387 25.848 24.932 26.6027 30.2027 31.9013C32.476 34.1867 31.904 36.2867 30.8093 40.4267Z" fill="#D01E25"/>
<path fill-rule="evenodd" clip-rule="evenodd" d="M8.78799 57.4626C11.6627 59.7613 23.836 64.5506 27.0107 57.9813C26.9733 57.4533 26.7507 56.7626 26.712 56.2346C22.7173 61.1146 13.1987 58.356 9.07999 56.0266C8.98265 56.5053 8.88533 56.984 8.78799 57.4626Z" fill="#B31D23"/>
<path d="M15.1 32.3933V34.14C14.9387 33.9986 14.7773 33.8546 14.6187 33.7093L15.1 32.3933ZM13.9 33.1293C14.2333 33.4533 14.62 33.0173 14.8347 32.2426C14.9707 31.748 14.9907 31.432 14.9227 31.0546C14.9013 30.9346 14.8813 30.8133 14.8627 30.6906C14.8107 30.3653 14.772 30.2306 14.82 30.0546C14.876 29.852 14.9707 29.7373 15.0693 29.8346L15.1 29.8746V28.86C14.8613 28.8866 14.6013 29.24 14.444 29.8093C14.2973 30.3386 14.2907 30.7213 14.348 31.096L14.404 31.4426C14.4507 31.7186 14.488 31.8653 14.436 32.0533C14.372 32.288 14.2693 32.3626 14.1707 32.2666C14.064 32.1626 14.012 31.8426 14.024 31.464C13.8893 31.5786 13.7547 31.6933 13.6213 31.804C13.6 32.5453 13.7227 32.9573 13.9 33.1293ZM16.364 33.1586L15.7907 34.7266L16.1453 35.0133L16.364 34.4146V33.1586ZM16.364 29.9986V31.0786L16.1147 30.864C16.0307 31.0986 15.948 31.3293 15.8627 31.5626C16.0093 31.6933 16.1573 31.8186 16.3053 31.9426C16.2067 32.2186 16.1067 32.4933 16.008 32.7666C15.8587 32.64 15.712 32.512 15.5653 32.3826C15.4627 32.656 15.364 32.928 15.2627 33.2013C15.4413 33.3586 15.6213 33.512 15.8013 33.6666C15.7027 33.9426 15.604 34.2146 15.5053 34.4866C15.3693 34.3733 15.2347 34.2573 15.1 34.14V32.3933L15.3427 31.7253C15.584 31.064 15.8267 30.4013 16.0693 29.74L16.364 29.9986ZM15.1 29.8746C15.1653 29.98 15.188 30.1826 15.1973 30.4266C15.324 30.292 15.4533 30.156 15.5827 30.02C15.58 29.5026 15.492 29.1066 15.3293 28.948L15.1 28.86V29.8746ZM16.932 31.5986V32.8573L16.9293 32.8666L16.932 32.8693V35.6266C16.808 35.532 16.6827 35.4373 16.5587 35.3413C16.636 34.8146 16.716 34.284 16.7947 33.7546L16.6453 33.6373L16.364 34.4146V33.1586L16.5173 32.7333L16.932 31.5986ZM16.932 30.4826V30.496L16.6387 31.3106L16.364 31.0786V29.9986C16.552 30.1626 16.7427 30.324 16.932 30.4826V30.4826ZM16.932 30.496V30.4826L16.936 30.4866L16.932 30.496ZM17.476 35.5306V36.024L17.3733 35.952L17.476 35.5306ZM17.476 32.6866C17.368 32.9693 17.2213 33.092 17.0587 32.9666L16.932 32.8693V35.6266L16.936 35.628C17.0107 35.036 17.088 34.44 17.1653 33.8466C17.268 33.8186 17.3733 33.748 17.476 33.6253V32.6866ZM17.476 30.924V31.9213L17.4467 31.896L17.3173 31.7946L16.932 32.8573V31.5986L17.2453 30.74L17.476 30.924ZM17.7067 34.5733V36.1866L17.476 36.024V35.5306L17.7067 34.5733ZM17.7067 31.104V33.248C17.632 33.4066 17.5547 33.532 17.476 33.6253V32.6866L17.5307 32.512C17.6107 32.224 17.5867 32.0306 17.476 31.9213V30.924L17.7067 31.104ZM17.7067 33.248C17.7853 33.08 17.86 32.872 17.9293 32.6226C18.156 31.804 18.0133 31.3386 17.7213 31.1146L17.7067 31.104V33.248ZM19.0987 34.888L18.4467 36.6786C18.568 36.76 18.6907 36.8359 18.8147 36.9106L19.0987 36.1333V34.888ZM19.0987 32.788V33.7893L18.7787 34.4026C18.4573 35.024 18.1333 35.6426 17.8133 36.26L17.7067 36.1866V34.5733L17.8947 33.7946C18.0707 33.076 18.2427 32.356 18.4173 31.6386C18.544 31.728 18.672 31.82 18.8 31.908C18.6267 32.572 18.4547 33.2386 18.2813 33.9013C18.164 34.348 18.044 34.8 17.9187 35.248L17.928 35.2546C18.1187 34.852 18.3027 34.4533 18.4947 34.0506C18.6933 33.6293 18.896 33.2093 19.0987 32.788V32.788ZM19.628 35.768V37.3813C19.468 37.0826 19.4587 36.5173 19.628 35.768ZM19.628 33.4293L19.1813 34.6573L19.0987 34.888V36.1333L19.552 34.884L19.628 34.6746V33.4293ZM19.628 32.4533V32.764L19.0987 33.7893V32.788L19.344 32.2706L19.628 32.4533ZM19.628 32.764V32.4533L19.7507 32.5293L19.628 32.764ZM19.628 34.6746C19.8493 34.0666 20.0693 33.4586 20.2907 32.8506C20.1653 32.7786 20.0413 32.7053 19.9173 32.6306L19.628 33.4293V34.6746ZM21.012 36.488L20.5227 37.8386C20.6853 37.912 20.848 37.9853 21.012 38.056V36.488ZM21.012 33.2466V34.1813L20.9907 34.1666C20.7667 34.0533 20.368 34.6693 20.1147 35.5866C19.9453 36.2 19.932 36.5986 20.14 36.7093C20.2213 36.752 20.344 36.6626 20.4613 36.5293C20.452 36.7773 20.4427 37.0293 20.4347 37.2773C20.2867 37.4573 20.0267 37.6893 19.8107 37.5733L19.628 37.3813V35.768L19.7107 35.4373C20.0587 34.1786 20.5827 33.3573 21.012 33.2466V33.2466ZM21.012 34.1813C21.068 34.232 21.0893 34.3613 21.0827 34.5986C21.2187 34.4573 21.3573 34.312 21.4947 34.168C21.5267 33.6786 21.44 33.36 21.26 33.2693L21.012 33.2466V34.1813ZM21.012 38.056V36.488L21.2693 35.7746C21.5187 35.0853 21.7693 34.3933 22.02 33.7C22.3413 33.832 22.6653 33.9533 22.9933 34.0653C22.888 34.3546 22.7853 34.6426 22.6827 34.9306C22.4867 34.8626 22.2907 34.7906 22.096 34.7146C22.008 34.96 21.9213 35.2026 21.8347 35.4466C21.9987 35.512 22.164 35.576 22.3307 35.636C22.228 35.924 22.1253 36.212 22.0227 36.4986C21.856 36.4373 21.6907 36.372 21.5267 36.304C21.4227 36.5893 21.3187 36.8733 21.2147 37.1586C21.4147 37.2413 21.6147 37.3226 21.816 37.4013C21.712 37.6893 21.6107 37.976 21.5067 38.2626C21.3413 38.196 21.176 38.128 21.012 38.056" fill="white"/>
<path fill-rule="evenodd" clip-rule="evenodd" d="M55.5893 47.4093L55.528 47.5146C55.444 47.656 55.26 47.6986 55.116 47.6186L49.4573 44.4746C48.8573 44.1413 49.4453 43.1533 50.024 43.5226L55.4853 46.9986C55.624 47.088 55.6733 47.268 55.5893 47.4093" fill="#CD8418"/>
<path fill-rule="evenodd" clip-rule="evenodd" d="M63.6093 52.0053L63.3973 52.3627L55.328 47.564C55.1587 47.4627 55.3707 47.1053 55.54 47.2053L63.6093 52.0053Z" fill="#8A8D8D"/>
<path fill-rule="evenodd" clip-rule="evenodd" d="M63.6094 52.0053L63.3973 52.3627L62.5067 51.756L62.6493 51.516L63.6094 52.0053" fill="#DFDFDD"/>
<path fill-rule="evenodd" clip-rule="evenodd" d="M52.584 32.364C52.2133 32.288 51.7573 31.8653 51.4627 31.2906C51.168 30.7173 50.9307 30.0319 50.8293 29.7853C50.5693 29.1479 50.7093 29.1693 50.4507 28.532C50.8053 28.3613 51.332 28.2626 51.6947 29.4333C51.8773 29.624 52.0747 29.5813 52.2587 30.4826C53.9933 30.9186 53.2987 32.5373 52.584 32.364Z" fill="#ED8F5F"/>
<path fill-rule="evenodd" clip-rule="evenodd" d="M53.7227 32.9587C53.5347 31.3653 52.124 33.7627 52.028 32.2587C51.6173 30.78 51.596 28.2493 51.9267 27.6146C51.9827 27.1266 54.9174 27.9853 55.2054 28.4253C55.54 29.3 55.504 31.7533 55.3414 32.272C55.2454 32.5747 54.776 33.668 53.7227 32.9587" fill="#F9B185"/>
<path fill-rule="evenodd" clip-rule="evenodd" d="M54.5613 28.084L55.2587 26.3026C55.436 25.8493 55.9426 26.108 55.8133 26.576L55.316 28.3799C55.192 28.8306 54.376 28.5546 54.5613 28.084" fill="#F9B185"/>
<path fill-rule="evenodd" clip-rule="evenodd" d="M54.06 28.4173C53.832 28.3466 53.7027 28.104 53.772 27.876L54.4307 25.7173C54.5973 25.1706 55.2147 25.3653 55.0907 25.924L54.6 28.1293C54.5493 28.3613 54.288 28.4866 54.06 28.4173Z" fill="#F9B185"/>
<path fill-rule="evenodd" clip-rule="evenodd" d="M53.2453 28.248H53.244C53.02 28.168 52.88 27.9133 52.968 27.668L53.82 25.34C54.0347 24.7533 54.7 24.9627 54.5187 25.5587L53.7973 27.9213C53.7213 28.1706 53.4733 28.3173 53.2453 28.248" fill="#F9B185"/>
<path fill-rule="evenodd" clip-rule="evenodd" d="M51.9493 27.48L52.7333 25.344C52.9307 24.808 53.604 25.028 53.4373 25.5747L52.7787 27.7333C52.6067 28.2933 51.7587 28.0013 51.9493 27.48Z" fill="#F9B185"/>
<path fill-rule="evenodd" clip-rule="evenodd" d="M44.464 45.224C48.724 43.8226 53.6387 37.0146 54.9747 32.6306C55.2374 31.772 52.8547 31.3053 52.028 32.2586C49.7147 34.9293 43.4187 39.06 41.3427 41.096C40.076 42.3373 41.32 46.26 44.464 45.224" fill="#ED8F5F"/>
<path fill-rule="evenodd" clip-rule="evenodd" d="M42.468 39.6467C45.124 39.9667 45.76 43.416 45.1373 45.484C44.8693 46.3773 42.4907 47.8066 41.1613 47.212C37.8907 45.748 37.5586 42.7013 38.96 40.5493C39.532 39.6707 41.3133 39.5067 42.468 39.6467" fill="#D01E25"/>
<path fill-rule="evenodd" clip-rule="evenodd" d="M40.2827 45.496C41.748 45.3853 43.0534 41.16 41.4534 39.3693C38.2934 36.7067 37.2307 36.0213 35.5867 35.0227C31.256 32.1987 30.0427 30.948 27.9254 32.4667C26.3374 33.6053 25.4787 37.1853 27.6854 39.156C31.9147 42.936 40.2827 45.496 40.2827 45.496Z" fill="#EE252C"/>
<path fill-rule="evenodd" clip-rule="evenodd" d="M28.692 14.816C28.9893 15.5693 29.344 16.324 29.5307 17.112C29.6613 17.6626 29.72 17.8266 29.5147 18.3226C29.2013 19.088 29.0067 19.2493 29.5827 19.848C30.1427 20.4306 29.4787 22.376 29.236 23.2733C29.044 23.9813 28.9493 24.808 28.3213 25.2413C26.7587 26.3253 24.968 25.732 23.3627 25.1973C21.7733 24.6747 18.5947 20.724 18.08 19.4213C17.6707 16.7386 18.3147 14.396 22.768 12.668C24.7013 11.9187 27.9467 12.9266 28.692 14.816" fill="#F9B185"/>
<path fill-rule="evenodd" clip-rule="evenodd" d="M26.888 22.3533C26.888 22.3533 27.5267 26.4533 26.1093 29.6866C24.4973 28.0573 20.648 30.1039 18.5027 27.5453C18.9213 26.6639 20.124 24.1813 19.7107 20.5013C19.5813 19.344 26.644 19.0439 26.888 22.3533Z" fill="#ED8F5F"/>
<path fill-rule="evenodd" clip-rule="evenodd" d="M27.904 18.7573C27.82 19.0933 27.4533 19.276 28.1613 20.292C26.2293 19.996 26.7027 20.3147 26.2293 19.996C25.4747 19.488 25.38 21.2733 24.5947 22.8013C23.364 25.196 20.0253 24.2466 19.7933 24.0786C18.4147 21.12 16.0907 17.1826 18.1853 14.544C19.8947 12.3893 23.648 11.1093 26.3627 12.32C27.6013 12.8706 30.6627 14.4893 28.6147 16.0707C27.8227 16.6813 28.1867 17.6293 27.904 18.7573" fill="#3F2114"/>
<path fill-rule="evenodd" clip-rule="evenodd" d="M25.3373 20.9C25.4907 21.8533 26.1773 23.1786 26.584 23.0906C27.6147 22.704 27.0986 22.0226 26.948 21.0693C26.792 20.116 27.0253 19.528 26.6213 19.452C25.8613 19.3146 25.1853 19.9426 25.3373 20.9" fill="#F9B185"/>
<path fill-rule="evenodd" clip-rule="evenodd" d="M28.352 13.6C26.7547 13.7866 24.1493 14.2866 23.22 14.9479C25.6747 14.7493 26.1333 16.4506 27.5147 16.7693C29.264 17.1733 33.2613 16.3946 33.076 15.5786C32.6253 13.5946 30.024 13.4053 28.352 13.6Z" fill="#EE252C"/>
<path fill-rule="evenodd" clip-rule="evenodd" d="M17.768 19.824C20.376 20.968 26.4053 18.816 29.764 16.124C28.108 10.76 24.7627 10.4867 21.2867 11.808C17.432 13.2747 16.0173 16.6093 17.768 19.824Z" fill="#2C58A2"/>
<path fill-rule="evenodd" clip-rule="evenodd" d="M85.3613 33.3213L76.1733 38.5853L76.172 44.9706L85.352 39.6666L85.3613 33.3213" fill="#8A8D8D"/>
<path fill-rule="evenodd" clip-rule="evenodd" d="M69.4733 34.764L76.1787 38.5853V44.9747L69.4733 41.1533V34.764Z" fill="#C2C3C1"/>
<path fill-rule="evenodd" clip-rule="evenodd" d="M85.3653 33.3213L76.1773 38.584L69.472 34.7626L78.6653 29.5786L85.3653 33.3213Z" fill="#E6E7E5"/>
<path fill-rule="evenodd" clip-rule="evenodd" d="M77.5093 31.8693C75.3827 31.8693 73.6573 32.784 73.6573 33.912C73.6573 35.04 75.3827 35.9547 77.5093 35.9547C79.636 35.9547 81.3613 35.04 81.3613 33.912C81.3613 32.784 79.636 31.8693 77.5093 31.8693Z" fill="#575A5B"/>
<path fill-rule="evenodd" clip-rule="evenodd" d="M74.0933 43.0839C73.836 42.5786 73.88 42.0399 74.1933 41.8799C74.5067 41.7199 74.9707 42 75.228 42.504C75.4853 43.008 75.4413 43.548 75.128 43.708C74.8147 43.868 74.352 43.5879 74.0933 43.0839Z" fill="#575A5B"/>
<path fill-rule="evenodd" clip-rule="evenodd" d="M77.5093 32.1133C75.46 32.1133 73.784 32.9627 73.6653 34.0333C73.784 35.104 75.46 35.9547 77.5093 35.9547C79.5587 35.9547 81.2347 35.104 81.3533 34.0333C81.2347 32.9627 79.5587 32.1133 77.5093 32.1133Z" fill="#28292A"/>
<path fill-rule="evenodd" clip-rule="evenodd" d="M80.732 35.6093L80.4667 35.764L74.32 32.26L74.5893 32.1786L80.732 35.6093" fill="#E6E7E5"/>
<path fill-rule="evenodd" clip-rule="evenodd" d="M74.32 35.6093L74.5853 35.764L80.732 32.26L80.4627 32.1786L74.32 35.6093" fill="#E6E7E5"/>
<path fill-rule="evenodd" clip-rule="evenodd" d="M77.5093 33.384C76.96 33.384 76.5146 33.62 76.5146 33.912C76.5146 34.2026 76.96 34.4387 77.5093 34.4387C78.0587 34.4387 78.504 34.2026 78.504 33.912C78.504 33.62 78.0587 33.384 77.5093 33.384Z" fill="#E6E7E5"/>
<path fill-rule="evenodd" clip-rule="evenodd" d="M74.236 43.0106C74.0427 42.6333 74.0773 42.2293 74.3106 42.1093C74.5453 41.9907 74.892 42.1987 75.0853 42.576C75.2787 42.9547 75.2453 43.3573 75.0106 43.4773C74.776 43.5973 74.4293 43.388 74.236 43.0106Z" fill="#28292A"/>
<path d="M57.6187 52.6293L57.5027 52.5266L57.604 52.3946C57.9213 52.3519 58.2173 52.3159 58.492 52.2839C60.5893 52.0346 61.4587 51.9319 62.448 49.4986C63.476 46.9706 66.1627 46.1813 68.7613 45.4186C70.8853 44.7946 73.0827 44.1493 74.4667 42.576L74.6333 42.5666L74.644 42.7333C73.2147 44.3573 70.984 45.0119 68.828 45.6453C66.1667 46.4266 63.652 47.1653 62.6667 49.5866C61.6253 52.1506 60.652 52.2653 58.5187 52.5186C58.2453 52.5506 57.952 52.5853 57.6347 52.6279L57.6187 52.6293" fill="#FBC617"/>
<path d="M58.328 53.8707L58.2147 53.7826L58.2987 53.6387C60.316 53.1067 60.7867 51.7867 61.2427 50.5093C61.7467 49.0947 62.268 47.6307 64.856 47.3413C67.524 47.0413 73.6987 45.4147 74.6613 42.532L74.8107 42.4573L74.8853 42.6067C73.8867 45.596 67.5973 47.2707 64.8813 47.5747C62.4413 47.8493 61.9667 49.18 61.464 50.588C60.9893 51.924 60.4973 53.3027 58.3587 53.8667L58.328 53.8707" fill="#6A8ACE"/>
<path d="M61.1947 51.3719C60.8373 51.3719 60.4853 51.3373 60.1387 51.3026C59.5267 51.2426 58.9493 51.1866 58.404 51.3306L58.26 51.2466L58.344 51.1026C58.9333 50.9493 59.5293 51.0066 60.1613 51.0693C61.004 51.1506 61.8787 51.2373 62.768 50.7973C63.42 50.4746 63.9453 49.8973 64.4533 49.3386C65.0613 48.6693 65.6347 48.0386 66.3987 47.8373C66.76 47.7426 67.1027 47.6546 67.4267 47.5706C71 46.6506 72.48 46.2706 74.776 42.7626L74.9387 42.7293L74.972 42.8919C72.628 46.4759 71.016 46.8906 67.4853 47.7986C67.1613 47.8826 66.82 47.9693 66.4587 48.0653C65.7627 48.2479 65.212 48.8546 64.628 49.4973C64.1053 50.0719 63.564 50.6666 62.872 51.008C62.2987 51.292 61.74 51.3719 61.1947 51.3719" fill="#EE252C"/>
</svg>
