<svg width="480" height="480" viewBox="0 0 480 480" fill="none" xmlns="http://www.w3.org/2000/svg">
<path d="M456 36H24C15.163 36 8 43.163 8 52V68V308V340C8 348.837 15.163 356 24 356H456C464.837 356 472 348.837 472 340V308V68V52C472 43.163 464.837 36 456 36Z" fill="#E0E0E2"/>
<path d="M176 444H304L272 356H208L176 444Z" fill="#ACABB1"/>
<path d="M8 68H472V308H8V68Z" fill="#2488FF"/>
<path d="M456 28H24C10.745 28 0 38.745 0 52V340C0 353.255 10.745 364 24 364H196.584L170.4 436H144C139.582 436 136 439.582 136 444C136 448.418 139.582 452 144 452H336C340.418 452 344 448.418 344 444C344 439.582 340.418 436 336 436H309.6L283.416 364H456C469.255 364 480 353.255 480 340V52C480 38.745 469.255 28 456 28ZM292.576 436H187.424L213.6 364H266.4L292.576 436ZM456 348H24C19.582 348 16 344.418 16 340V316H200C204.418 316 208 312.418 208 308C208 303.582 204.418 300 200 300H16V76H408C412.418 76 416 72.418 416 68C416 63.582 412.418 60 408 60H16V52C16 47.582 19.582 44 24 44H456C460.418 44 464 47.582 464 52V60H440C435.582 60 432 63.582 432 68C432 72.418 435.582 76 440 76H464V300H280C275.582 300 272 303.582 272 308C272 312.418 275.582 316 280 316H464V340C464 344.418 460.418 348 456 348Z" fill="#231F20"/>
<path d="M248 300H232C227.582 300 224 303.582 224 308C224 312.418 227.582 316 232 316H248C252.418 316 256 312.418 256 308C256 303.582 252.418 300 248 300Z" fill="#231F20"/>
</svg>
