<svg width="512" height="512" viewBox="0 0 512 512" fill="none" xmlns="http://www.w3.org/2000/svg">
<g clip-path="url(#clip0)">
<path d="M303.76 109.531H276.51V143.571H303.76V109.531Z" fill="#AFB9D2"/>
<path d="M303.76 121.811H276.51V143.571H303.76V121.811Z" fill="#959CB3"/>
<path d="M432.05 240.2V440.331L420.06 452.331L367.89 504.501H212.369L198.479 490.611L169.399 461.521L148.209 440.331V305.53L172.869 280.87L187.869 265.87L392.39 200.54L407.39 215.54L432.05 240.2Z" fill="#00D2D7"/>
<path d="M407.39 215.54V359.791C407.39 369.171 406.28 378.501 404.08 387.531C401.39 398.681 397.05 409.381 391.2 419.291C386.18 427.811 380.07 435.691 373.05 442.711C350.9 464.861 321.45 477.061 290.129 477.061C248.779 477.061 210.059 454.911 189.059 419.271C183.209 409.361 178.869 398.671 176.179 387.501C173.989 378.501 172.869 369.171 172.869 359.791V280.87L187.869 265.87L392.39 200.54L407.39 215.54Z" fill="#00B2BF"/>
<path d="M420.06 452.331L381.78 490.611L314.17 422.991L352.439 384.721L420.06 452.331Z" fill="#00B2BF"/>
<path d="M410.87 461.522L390.97 481.422L362.02 452.462L332.55 422.992L352.439 403.102L382.01 432.662L410.87 461.522Z" fill="#6CFFFF"/>
<path d="M266.09 422.991L198.48 490.611L169.4 461.521L160.21 452.331L227.83 384.721L266.09 422.991Z" fill="#00B2BF"/>
<path d="M247.71 422.992L218.3 452.412L189.29 481.422L169.4 461.522L198.27 432.652L227.83 403.102L247.71 422.992Z" fill="#6CFFFF"/>
<path d="M227.83 403.102L247.71 422.992L218.3 452.412C210.9 446.682 204.16 440.062 198.27 432.652L227.83 403.102Z" fill="#00D2D7"/>
<path d="M382.01 432.662C379.22 436.182 376.23 439.532 373.05 442.712C369.55 446.212 365.86 449.462 362.02 452.462L332.55 422.992L352.44 403.102L382.01 432.662Z" fill="#00D2D7"/>
<path d="M411.145 268.227H386.531V298.142H411.145V268.227Z" fill="#AFB9D2"/>
<path d="M411.145 318.303H386.531V348.218H411.145V318.303Z" fill="#AFB9D2"/>
<path d="M394.392 179.787V359.795C394.392 368.286 393.372 376.549 391.447 384.452C389.021 394.508 385.127 404.002 380.002 412.678C375.51 420.299 370.069 427.305 363.854 433.52C344.99 452.384 318.926 464.057 290.129 464.057C251.839 464.057 218.374 443.426 200.257 412.669C195.132 403.993 191.238 394.508 188.812 384.452C186.887 376.55 185.867 368.287 185.867 359.795V179.787L230.829 134.816H349.428L394.392 179.787Z" fill="#48709B"/>
<path d="M394.389 179.79V198.78L343.428 147.82H236.829L185.869 198.79V179.79L230.829 134.82H349.428L394.389 179.79Z" fill="#629ACC"/>
<path d="M392.31 380.562C392.05 381.872 391.76 383.162 391.45 384.452C389.02 394.512 385.13 404.002 380 412.682C375.51 420.302 370.07 427.302 363.86 433.522C344.99 452.382 318.93 464.062 290.13 464.062C251.84 464.062 218.38 443.432 200.26 412.672C195.13 403.992 191.24 394.512 188.81 384.452C188.5 383.162 188.21 381.872 187.95 380.562C190.23 386.582 193.08 392.342 196.43 397.782C215.32 428.542 250.21 449.172 290.13 449.172C320.16 449.172 347.33 437.502 367 418.632C373.48 412.422 379.15 405.412 383.83 397.792C387.179 392.352 390.03 386.592 392.31 380.562Z" fill="#304E75"/>
<path d="M290.131 327.896C247.384 327.896 209.823 350.531 188.814 384.453C191.24 394.509 195.134 403.994 200.259 412.67C214.112 376.533 249.177 350.804 290.131 350.804C331.094 350.804 366.158 376.533 380.003 412.679C385.128 404.003 389.022 394.509 391.448 384.453C370.439 350.531 332.878 327.896 290.131 327.896Z" fill="#6CFFFF"/>
<path d="M212.652 203.448V235.348L185.869 262.132V230.223L212.652 203.448Z" fill="#00D2D7"/>
<path d="M212.653 262.962V294.862L185.87 321.646V289.737L212.653 262.962Z" fill="#00D2D7"/>
<path d="M290.131 429.674C300.977 429.674 309.769 420.882 309.769 410.036C309.769 399.191 300.977 390.398 290.131 390.398C279.285 390.398 270.493 399.191 270.493 410.036C270.493 420.882 279.285 429.674 290.131 429.674Z" fill="#00D2D7"/>
<path d="M327.407 283.184L290.13 307.783L252.853 283.184V134.814H327.407V283.184Z" fill="#304E75"/>
<path d="M327.406 134.814H252.853V147.82H327.406V134.814Z" fill="#48709B"/>
<path d="M303.756 159.656H276.506V234.394H303.756V159.656Z" fill="#00D2D7"/>
<path d="M432.05 389.413C436.193 389.413 439.55 386.055 439.55 381.913V240.202C439.55 238.213 438.76 236.305 437.354 234.899L401.896 199.441C401.895 199.44 401.894 199.439 401.893 199.438V179.788C401.893 177.799 401.103 175.892 399.697 174.485L391.191 165.977C388.262 163.048 383.513 163.046 380.585 165.976C377.655 168.904 377.655 173.653 380.584 176.582L386.894 182.893V359.798C386.894 361.622 386.839 363.432 386.738 365.231C364.429 338.762 332.507 322.649 297.632 320.621V311.819L326.491 292.775C326.497 292.771 326.503 292.767 326.508 292.764L331.539 289.444C333.643 288.056 334.908 285.704 334.908 283.184V142.314H346.321L356.419 152.413C359.348 155.342 364.097 155.343 367.025 152.414C369.955 149.485 369.955 144.737 367.026 141.808L354.732 129.512C353.326 128.105 351.418 127.315 349.428 127.315H311.255V109.532C311.255 105.39 307.898 102.032 303.755 102.032H297.631V88.9724C297.631 75.7033 286.836 64.9083 273.567 64.9083H96.5121C91.5141 64.9083 87.4481 60.8422 87.4481 55.8442C87.4481 50.8462 91.5141 46.7802 96.5121 46.7802H274.241C287.138 46.7802 297.632 36.2871 297.632 23.3901C297.632 10.493 287.138 0 274.241 0H81.6C77.458 0 74.1 3.35801 74.1 7.50003C74.1 11.642 77.458 15.0001 81.6 15.0001H274.241C278.868 15.0001 282.632 18.7641 282.632 23.3911C282.632 28.0181 278.868 31.7811 274.241 31.7811H96.5121C83.243 31.7811 72.448 42.5762 72.448 55.8452C72.448 69.1143 83.243 79.9093 96.5121 79.9093H273.567C278.565 79.9093 282.631 83.9753 282.631 88.9733V102.033H276.506C272.363 102.033 269.006 105.391 269.006 109.533V127.316H230.834C228.845 127.316 226.937 128.106 225.53 129.513L180.564 174.486C179.158 175.892 178.368 177.8 178.368 179.789V264.815C178.209 264.95 178.051 265.087 177.901 265.237L142.908 300.23C141.501 301.636 140.711 303.544 140.711 305.533V440.336C140.711 442.325 141.501 444.233 142.908 445.639L207.073 509.803C208.479 511.21 210.387 512 212.376 512H233.911C238.053 512 241.411 508.642 241.411 504.5C241.411 500.358 238.053 497 233.911 497H215.483L199.898 481.416L228.395 452.916C246.096 464.691 267.325 471.564 290.132 471.564C312.939 471.564 334.168 464.691 351.868 452.917L380.364 481.417L364.78 497.001H268.089C263.946 497.001 260.589 500.359 260.589 504.501C260.589 508.643 263.946 512.001 268.089 512.001H367.887C369.876 512.001 371.783 511.211 373.191 509.804C373.191 509.804 416.206 466.789 416.226 466.769L437.356 445.639C438.762 444.233 439.552 442.325 439.552 440.336V416.091C439.552 411.949 436.195 408.591 432.052 408.591C427.909 408.591 424.552 411.949 424.552 416.091V437.229L410.864 450.917L382.538 422.595C383.774 420.781 384.957 418.928 386.087 417.04C386.215 416.861 386.347 416.685 386.461 416.492C390.316 409.967 393.462 403.079 395.897 395.933C396.999 392.712 398.028 389.413 398.764 386.087C400.805 377.652 401.895 368.85 401.895 359.798V355.718H411.146C415.289 355.718 418.646 352.36 418.646 348.218V318.302C418.646 314.16 415.289 310.802 411.146 310.802H401.895V305.641H411.146C415.289 305.641 418.646 302.283 418.646 298.141V268.226C418.646 264.084 415.289 260.726 411.146 260.726H401.895V220.65L424.552 243.307V381.912C424.55 386.055 427.908 389.413 432.05 389.413ZM383.361 385.724C382.439 389.034 381.349 392.275 380.093 395.433C372.541 382.271 362.17 370.9 349.541 362.045C332.056 349.784 311.512 343.303 290.131 343.303C268.755 343.303 248.214 349.783 230.727 362.044C218.097 370.898 207.722 382.271 200.168 395.433C198.913 392.275 197.821 389.035 196.9 385.725C217.679 354.147 252.295 335.396 290.132 335.396C327.965 335.396 362.582 354.15 383.361 385.724ZM296.255 226.895H284.006V167.157H296.255V226.895ZM276.506 241.895H303.755H319.907V252.973H260.353V241.895H276.506ZM260.354 279.051V267.973H319.908V279.051H260.354ZM297.325 294.051L290.131 298.798L282.937 294.051H297.325ZM284.006 117.032H296.255V127.315H284.006V117.032ZM319.908 142.315V226.895H311.256V159.657C311.256 155.515 307.899 152.157 303.756 152.157H276.507C272.364 152.157 269.007 155.515 269.007 159.657V226.895H260.355V142.315H319.908V142.315ZM233.941 142.315H245.355V283.185C245.355 285.705 246.621 288.057 248.724 289.445L253.753 292.763C253.761 292.768 253.769 292.773 253.776 292.779L282.631 311.82V320.622C247.755 322.649 215.833 338.763 193.523 365.232C193.423 363.433 193.367 361.622 193.367 359.798V324.753L217.956 300.165C219.363 298.759 220.153 296.851 220.153 294.862V262.962C220.153 259.929 218.326 257.194 215.524 256.033C212.723 254.871 209.497 255.512 207.351 257.658L193.368 271.636V265.24L217.957 240.652C219.364 239.246 220.154 237.338 220.154 235.349V203.449C220.154 200.416 218.327 197.681 215.525 196.52C212.724 195.358 209.498 195.999 207.352 198.145L193.369 212.123V182.895L233.941 142.315ZM193.368 292.845L205.154 281.064V291.755L193.368 303.54V292.845ZM193.368 233.332L205.154 221.551V232.242L193.368 244.027V233.332ZM155.711 308.639L178.368 285.982V359.799C178.368 368.855 179.459 377.659 181.501 386.097C182.251 389.438 183.274 392.751 184.384 395.988C186.815 403.107 189.955 409.974 193.801 416.484C193.896 416.645 194.011 416.789 194.117 416.94C195.265 418.862 196.467 420.749 197.726 422.595L169.4 450.917L155.712 437.229V308.639H155.711ZM189.291 470.809L180.006 461.524L207.057 434.478C209.986 437.733 213.103 440.814 216.391 443.707L189.291 470.809ZM290.13 456.563C255.964 456.563 225.877 438.763 208.655 411.95C222.594 379.716 254.874 358.304 290.131 358.304C325.394 358.304 357.674 379.718 371.604 411.952C354.382 438.764 324.296 456.563 290.13 456.563ZM400.256 461.524L390.971 470.809L363.873 443.707C367.161 440.814 370.278 437.733 373.207 434.478L400.256 461.524ZM403.644 325.803V340.719H401.893V325.803H403.644ZM403.644 275.728V290.643H401.893V275.728H403.644Z" fill="#231F20"/>
<path d="M290.131 382.898C275.167 382.898 262.993 395.072 262.993 410.036C262.993 425 275.167 437.174 290.131 437.174C305.095 437.174 317.269 425 317.269 410.036C317.269 395.072 305.095 382.898 290.131 382.898ZM290.131 422.173C283.439 422.173 277.993 416.728 277.993 410.035C277.993 403.342 283.438 397.897 290.131 397.897C296.824 397.897 302.269 403.342 302.269 410.035C302.269 416.728 296.824 422.173 290.131 422.173Z" fill="#231F20"/>
</g>
<defs>
<clipPath id="clip0">
<rect width="512" height="512" fill="white"/>
</clipPath>
</defs>
</svg>
