<svg width="513" height="473" viewBox="0 0 513 473" fill="none" xmlns="http://www.w3.org/2000/svg">
<path d="M7 298.68H505V420.152H7V298.68Z" fill="#FFAF46"/>
<path d="M331.468 387.152H47C45.1435 387.152 43.363 386.414 42.0503 385.101C40.7375 383.789 40 382.008 40 380.152C40 378.295 40.7375 376.515 42.0503 375.202C43.363 373.889 45.1435 373.152 47 373.152H331.468C333.324 373.152 335.105 373.889 336.418 375.202C337.73 376.515 338.468 378.295 338.468 380.152C338.468 382.008 337.73 383.789 336.418 385.101C335.105 386.414 333.324 387.152 331.468 387.152Z" fill="#E1E4FB"/>
<path d="M331.468 345.68H47C45.1435 345.68 43.363 344.942 42.0503 343.629C40.7375 342.317 40 340.536 40 338.68C40 336.823 40.7375 335.043 42.0503 333.73C43.363 332.417 45.1435 331.68 47 331.68H331.468C333.324 331.68 335.105 332.417 336.418 333.73C337.73 335.043 338.468 336.823 338.468 338.68C338.468 340.536 337.73 342.317 336.418 343.629C335.105 344.942 333.324 345.68 331.468 345.68Z" fill="#E1E4FB"/>
<path d="M444.264 380.159H392.236C386.736 380.159 381.462 377.975 377.573 374.086C373.685 370.197 371.5 364.923 371.5 359.423C371.5 353.924 373.685 348.65 377.573 344.761C381.462 340.872 386.736 338.688 392.236 338.688H444.264C449.764 338.688 455.038 340.872 458.927 344.761C462.815 348.65 465 353.924 465 359.423C465 364.923 462.815 370.197 458.927 374.086C455.038 377.975 449.764 380.159 444.264 380.159Z" fill="#E4667F"/>
<path d="M212.188 179.336C210.804 179.335 209.451 178.924 208.301 178.155C207.15 177.385 206.254 176.292 205.724 175.014C205.195 173.735 205.056 172.328 205.326 170.971C205.596 169.613 206.262 168.366 207.24 167.388C213.63 160.984 221.219 155.902 229.573 152.431C237.927 148.961 246.883 147.169 255.929 147.16C264.976 147.151 273.935 148.924 282.297 152.377C290.658 155.831 298.257 160.897 304.66 167.288C305.33 167.932 305.864 168.703 306.233 169.557C306.601 170.41 306.796 171.328 306.805 172.258C306.815 173.187 306.64 174.109 306.289 174.97C305.939 175.831 305.42 176.613 304.764 177.272C304.108 177.93 303.328 178.451 302.468 178.805C301.609 179.158 300.687 179.337 299.758 179.331C298.829 179.324 297.91 179.133 297.055 178.768C296.2 178.403 295.427 177.871 294.78 177.204C289.677 172.109 283.621 168.07 276.957 165.317C270.292 162.564 263.151 161.151 255.941 161.159C248.73 161.167 241.592 162.595 234.934 165.362C228.275 168.13 222.228 172.182 217.136 177.288C216.487 177.938 215.715 178.453 214.866 178.805C214.017 179.156 213.107 179.336 212.188 179.336Z" fill="#00DDC1"/>
<path d="M183.916 151.068C182.532 151.066 181.18 150.654 180.03 149.884C178.879 149.115 177.983 148.021 177.454 146.743C176.924 145.464 176.786 144.057 177.055 142.7C177.325 141.342 177.99 140.095 178.968 139.116C189.068 128.994 201.064 120.962 214.27 115.479C227.476 109.996 241.633 107.169 255.932 107.16C270.231 107.151 284.392 109.96 297.605 115.427C310.817 120.894 322.823 128.911 332.936 139.02C333.605 139.665 334.139 140.437 334.507 141.29C334.875 142.144 335.069 143.062 335.078 143.992C335.087 144.921 334.91 145.843 334.559 146.704C334.208 147.564 333.689 148.346 333.033 149.004C332.376 149.662 331.595 150.183 330.735 150.535C329.875 150.888 328.954 151.066 328.024 151.059C327.095 151.052 326.176 150.86 325.322 150.494C324.467 150.128 323.694 149.595 323.048 148.928C314.236 140.116 303.773 133.129 292.258 128.364C280.743 123.599 268.402 121.151 255.94 121.159C243.478 121.167 231.14 123.632 219.631 128.411C208.123 133.191 197.669 140.193 188.868 149.016C188.219 149.667 187.447 150.184 186.597 150.536C185.747 150.888 184.836 151.069 183.916 151.068Z" fill="#00DDC1"/>
<path d="M155.648 122.796C154.264 122.795 152.911 122.383 151.76 121.614C150.609 120.845 149.712 119.751 149.183 118.472C148.653 117.194 148.514 115.786 148.783 114.429C149.052 113.071 149.718 111.823 150.696 110.844C164.506 97.0053 180.908 86.0247 198.965 78.5298C217.021 71.0349 236.378 67.1725 255.928 67.1636C275.478 67.1547 294.839 70.9994 312.902 78.4778C330.965 85.9563 347.378 96.9219 361.2 110.748C361.869 111.393 362.403 112.164 362.771 113.018C363.139 113.872 363.333 114.79 363.342 115.72C363.351 116.649 363.174 117.571 362.823 118.432C362.472 119.292 361.953 120.074 361.297 120.732C360.64 121.39 359.859 121.911 358.999 122.263C358.139 122.616 357.218 122.794 356.288 122.787C355.359 122.78 354.44 122.588 353.586 122.222C352.731 121.856 351.958 121.323 351.312 120.656C338.789 108.127 323.92 98.1901 307.554 91.4131C291.187 84.6361 273.646 81.1521 255.932 81.1602C238.218 81.1684 220.679 84.6686 204.319 91.4607C187.96 98.2528 173.099 108.203 160.588 120.744C159.94 121.394 159.17 121.91 158.323 122.262C157.475 122.614 156.566 122.796 155.648 122.796Z" fill="#00DDC1"/>
<path d="M505 291.68H457.532L511.416 33.1995C512.175 29.6629 512.228 26.0111 511.57 22.4541C510.913 18.8972 509.559 15.5052 507.586 12.4735C505.613 9.44169 503.061 6.8299 500.075 4.78835C497.089 2.74679 493.728 1.31574 490.187 0.577526C486.646 -0.160688 482.994 -0.191502 479.441 0.486856C475.888 1.16521 472.504 2.53936 469.484 4.53024C466.464 6.52112 463.868 9.08946 461.844 12.0875C459.82 15.0856 458.409 18.4542 457.692 21.9995L445.084 82.4835C444.706 84.3013 445.065 86.1949 446.083 87.7477C447.101 89.3005 448.694 90.3853 450.512 90.7635C452.33 91.1417 454.223 90.7823 455.776 89.7644C457.329 88.7464 458.414 87.1533 458.792 85.3355L471.4 24.8555C472.127 21.3669 474.211 18.31 477.192 16.3574C480.173 14.4047 483.807 13.7163 487.296 14.4435C490.785 15.1708 493.842 17.2541 495.794 20.2351C497.747 23.2162 498.435 26.8509 497.708 30.3395L443.232 291.68H415.776L426.644 239.564C427.023 237.746 426.664 235.852 425.646 234.299C424.629 232.746 423.036 231.66 421.218 231.282C419.4 230.903 417.506 231.262 415.953 232.279C414.4 233.297 413.315 234.89 412.936 236.708L401.476 291.68H110.524L54.308 21.9995C52.7864 14.9117 48.5219 8.71399 42.4458 4.76001C36.3697 0.806038 28.9759 -0.58289 21.8792 0.896587C14.7824 2.37606 8.55949 6.60372 4.5695 12.6562C0.579507 18.7087 -0.853305 26.0941 0.584 33.1995L54.464 291.68H7C5.14381 291.681 3.36395 292.418 2.05142 293.731C0.738898 295.043 0.00105977 296.823 0 298.68L0 420.16C0.00105977 422.016 0.738898 423.796 2.05142 425.108C3.36395 426.421 5.14381 427.158 7 427.16H40V442.664C40 450.488 43.1084 457.993 48.6415 463.526C54.1746 469.059 61.6791 472.168 69.504 472.168C77.3289 472.168 84.8334 469.059 90.3665 463.526C95.8996 457.993 99.008 450.488 99.008 442.664V427.16H166.5C168.357 427.16 170.137 426.422 171.45 425.109C172.763 423.797 173.5 422.016 173.5 420.16C173.5 418.303 172.763 416.523 171.45 415.21C170.137 413.897 168.357 413.16 166.5 413.16H14V305.68H498V413.152H212.188C210.331 413.152 208.551 413.889 207.238 415.202C205.925 416.515 205.188 418.295 205.188 420.152C205.188 422.008 205.925 423.789 207.238 425.101C208.551 426.414 210.331 427.152 212.188 427.152H412.988V442.656C412.988 450.48 416.096 457.985 421.63 463.518C427.163 469.051 434.667 472.16 442.492 472.16C450.317 472.16 457.821 469.051 463.354 463.518C468.888 457.985 471.996 450.48 471.996 442.656V427.152H504.996C506.852 427.152 508.631 426.415 509.944 425.104C511.258 423.793 511.997 422.015 512 420.16V298.68C511.999 296.823 511.261 295.043 509.949 293.731C508.636 292.418 506.856 291.681 505 291.68ZM85 427.152V442.656C85 446.767 83.3665 450.711 80.459 453.618C77.5514 456.526 73.6079 458.16 69.496 458.16C65.3841 458.16 61.4406 456.526 58.533 453.618C55.6255 450.711 53.992 446.767 53.992 442.656V427.152H85ZM68.768 291.68L14.292 30.3395C13.5648 26.8509 14.2532 23.2162 16.2058 20.2351C18.1585 17.2541 21.2153 15.1708 24.704 14.4435C28.1927 13.7163 31.8273 14.4047 34.8084 16.3574C37.7895 18.31 39.8728 21.3669 40.6 24.8555L96.224 291.68H68.768ZM458 442.656C458 446.767 456.367 450.711 453.459 453.618C450.551 456.526 446.608 458.16 442.496 458.16C438.384 458.16 434.441 456.526 431.533 453.618C428.625 450.711 426.992 446.767 426.992 442.656V427.152H458V442.656Z" fill="#231F20"/>
<path d="M47 387.152H331.468C333.324 387.152 335.105 386.414 336.418 385.101C337.73 383.789 338.468 382.008 338.468 380.152C338.468 378.295 337.73 376.515 336.418 375.202C335.105 373.889 333.324 373.152 331.468 373.152H47C45.1435 373.152 43.363 373.889 42.0503 375.202C40.7375 376.515 40 378.295 40 380.152C40 382.008 40.7375 383.789 42.0503 385.101C43.363 386.414 45.1435 387.152 47 387.152Z" fill="#231F20"/>
<path d="M47 345.679H331.468C333.324 345.679 335.105 344.942 336.418 343.629C337.73 342.316 338.468 340.536 338.468 338.679C338.468 336.823 337.73 335.042 336.418 333.73C335.105 332.417 333.324 331.679 331.468 331.679H47C45.1435 331.679 43.363 332.417 42.0503 333.73C40.7375 335.042 40 336.823 40 338.679C40 340.536 40.7375 342.316 42.0503 343.629C43.363 344.942 45.1435 345.679 47 345.679Z" fill="#231F20"/>
<path d="M430.432 187.076C430.905 187.172 431.386 187.221 431.868 187.224C433.476 187.22 435.033 186.664 436.28 185.649C437.527 184.634 438.387 183.221 438.716 181.648L446.716 143.248C447.095 141.43 446.736 139.536 445.718 137.983C444.701 136.43 443.108 135.344 441.29 134.966C439.472 134.587 437.578 134.946 436.025 135.963C434.472 136.981 433.387 138.574 433.008 140.392L425.008 178.792C424.629 180.609 424.988 182.503 426.005 184.056C427.022 185.61 428.615 186.696 430.432 187.076Z" fill="#231F20"/>
<path d="M444.264 387.151C451.62 387.151 458.675 384.229 463.876 379.028C469.078 373.826 472 366.772 472 359.415C472 352.059 469.078 345.005 463.876 339.803C458.675 334.602 451.62 331.679 444.264 331.679H392.236C384.88 331.679 377.825 334.602 372.624 339.803C367.422 345.005 364.5 352.059 364.5 359.415C364.5 366.772 367.422 373.826 372.624 379.028C377.825 384.229 384.88 387.151 392.236 387.151H444.264ZM378.5 359.415C378.503 355.773 379.951 352.281 382.527 349.706C385.102 347.131 388.594 345.683 392.236 345.679H444.264C447.907 345.679 451.401 347.127 453.977 349.703C456.553 352.279 458 355.772 458 359.415C458 363.058 456.553 366.552 453.977 369.128C451.401 371.704 447.907 373.151 444.264 373.151H392.236C388.594 373.147 385.103 371.699 382.528 369.124C379.953 366.549 378.504 363.057 378.5 359.415Z" fill="#231F20"/>
<path d="M227.012 216.16C227.014 221.892 228.716 227.496 231.903 232.261C235.09 237.027 239.618 240.74 244.915 242.932C250.212 245.125 256.04 245.697 261.663 244.577C267.285 243.457 272.449 240.695 276.502 236.641C280.555 232.586 283.314 227.421 284.432 221.798C285.549 216.176 284.975 210.348 282.78 205.052C280.586 199.755 276.87 195.229 272.104 192.044C267.337 188.859 261.733 187.16 256 187.16C248.312 187.168 240.942 190.226 235.507 195.664C230.073 201.101 227.017 208.472 227.012 216.16ZM270.988 216.16C270.986 219.123 270.105 222.02 268.456 224.483C266.808 226.946 264.466 228.866 261.727 229.998C258.988 231.131 255.975 231.426 253.069 230.846C250.162 230.266 247.493 228.838 245.398 226.741C243.303 224.645 241.876 221.974 241.299 219.067C240.722 216.16 241.019 213.147 242.154 210.409C243.289 207.671 245.21 205.331 247.674 203.685C250.139 202.038 253.036 201.16 256 201.16C259.976 201.164 263.787 202.746 266.598 205.558C269.408 208.371 270.987 212.184 270.988 216.16Z" fill="#231F20"/>
<path d="M304.68 177.184C305.33 176.534 305.846 175.762 306.197 174.913C306.549 174.064 306.73 173.155 306.73 172.236C306.73 171.317 306.549 170.407 306.197 169.558C305.846 168.709 305.33 167.937 304.68 167.288C298.277 160.897 290.678 155.831 282.317 152.377C273.955 148.924 264.996 147.151 255.949 147.16C246.903 147.169 237.947 148.961 229.593 152.431C221.239 155.902 213.65 160.984 207.26 167.388C205.985 168.707 205.279 170.476 205.294 172.311C205.31 174.146 206.046 175.902 207.343 177.2C208.641 178.498 210.396 179.235 212.232 179.251C214.067 179.268 215.836 178.562 217.156 177.288C222.248 172.182 228.295 168.13 234.954 165.362C241.612 162.595 248.75 161.167 255.961 161.159C263.171 161.151 270.312 162.564 276.977 165.317C283.641 168.07 289.697 172.109 294.8 177.204C296.114 178.509 297.892 179.239 299.744 179.236C301.596 179.232 303.371 178.494 304.68 177.184Z" fill="#231F20"/>
<path d="M332.948 148.92C334.26 147.606 334.997 145.826 334.997 143.97C334.997 142.113 334.26 140.333 332.948 139.02C322.835 128.911 310.829 120.894 297.617 115.427C284.404 109.96 270.243 107.151 255.944 107.16C241.645 107.169 227.488 109.996 214.282 115.479C201.076 120.962 189.08 128.994 178.98 139.116C178.33 139.766 177.814 140.537 177.463 141.387C177.111 142.236 176.93 143.146 176.93 144.066C176.93 144.985 177.111 145.895 177.463 146.744C177.814 147.594 178.33 148.366 178.98 149.016C179.63 149.666 180.402 150.181 181.251 150.533C182.1 150.885 183.011 151.066 183.93 151.066C184.849 151.066 185.76 150.885 186.609 150.533C187.458 150.181 188.23 149.666 188.88 149.016C197.681 140.193 208.135 133.191 219.643 128.411C231.152 123.632 243.49 121.167 255.952 121.159C268.414 121.151 280.755 123.599 292.27 128.364C303.785 133.129 314.248 140.116 323.06 148.928C324.373 150.237 326.152 150.971 328.006 150.97C329.86 150.968 331.637 150.231 332.948 148.92Z" fill="#231F20"/>
<path d="M155.648 122.796C156.567 122.797 157.478 122.616 158.327 122.264C159.176 121.912 159.947 121.395 160.596 120.744C173.107 108.203 187.967 98.2528 204.327 91.4607C220.687 84.6686 238.226 81.1684 255.94 81.1602C273.654 81.152 291.195 84.6361 307.561 91.4131C323.928 98.19 338.797 108.127 351.32 120.656C351.962 121.34 352.736 121.889 353.595 122.268C354.453 122.648 355.38 122.851 356.318 122.865C357.257 122.88 358.189 122.705 359.059 122.352C359.929 121.998 360.719 121.474 361.382 120.809C362.045 120.144 362.567 119.353 362.918 118.482C363.269 117.611 363.441 116.678 363.424 115.74C363.407 114.801 363.201 113.875 362.819 113.018C362.437 112.16 361.886 111.388 361.2 110.748C347.377 96.9206 330.965 85.9541 312.901 78.4749C294.836 70.9957 275.475 67.1506 255.924 67.1596C236.373 67.1685 217.015 71.0312 198.958 78.5268C180.901 86.0225 164.498 97.0041 150.688 110.844C149.71 111.823 149.044 113.071 148.775 114.429C148.506 115.786 148.645 117.194 149.175 118.472C149.704 119.751 150.601 120.844 151.752 121.614C152.903 122.383 154.256 122.795 155.64 122.796H155.648Z" fill="#231F20"/>
</svg>
