<svg width="480" height="480" viewBox="0 0 480 480" fill="none" xmlns="http://www.w3.org/2000/svg">
<path d="M216 472H376L336 432H272H248H272V376H216V472Z" fill="#898890"/>
<path d="M216 344V8H8V472H216V344ZM72 376C63.163 376 56 368.837 56 360C56 351.163 63.163 344 72 344C80.837 344 88 351.163 88 360C88 368.837 80.837 376 72 376ZM152 376C143.163 376 136 368.837 136 360C136 351.163 143.163 344 152 344C160.837 344 168 351.163 168 360C168 368.837 160.837 376 152 376Z" fill="#E0E0E2"/>
<path d="M456 104H216V136V344V376H456C464.837 376 472 368.837 472 360V120C472 111.163 464.837 104 456 104ZM440 344V136V344Z" fill="#E0E0E2"/>
<path d="M72 376C80.8366 376 88 368.837 88 360C88 351.163 80.8366 344 72 344C63.1634 344 56 351.163 56 360C56 368.837 63.1634 376 72 376Z" fill="#2488FF"/>
<path d="M152 376C160.837 376 168 368.837 168 360C168 351.163 160.837 344 152 344C143.163 344 136 351.163 136 360C136 368.837 143.163 376 152 376Z" fill="#2488FF"/>
<path d="M216 136H440V344H216V136Z" fill="#2488FF"/>
<path d="M456 96H224V8C224 3.582 220.418 0 216 0H8C3.582 0 0 3.582 0 8V472C0 476.418 3.582 480 8 480H376C380.418 479.999 383.999 476.417 383.998 471.998C383.998 469.877 383.155 467.844 381.656 466.344L341.656 426.344C340.156 424.844 338.122 424 336 424H280V384H456C469.255 384 480 373.255 480 360V120C480 106.745 469.255 96 456 96ZM16 16H208V464H16V16ZM264 424H248C243.582 424 240 427.582 240 432C240 436.418 243.582 440 248 440H332.688L356.688 464H224V384H264V424ZM464 360C464 364.418 460.418 368 456 368H224V352H256V336H224V144H256V128H224V112H456C460.418 112 464 115.582 464 120V360Z" fill="#231F20"/>
<path d="M272 144H432V336H336V352H448V128H272V144Z" fill="#231F20"/>
<path d="M304 336H320V352H304V336Z" fill="#231F20"/>
<path d="M272 336H288V352H272V336Z" fill="#231F20"/>
<path d="M40 128H184V144H40V128Z" fill="#231F20"/>
<path d="M40 160H184V176H40V160Z" fill="#231F20"/>
<path d="M72 336C58.745 336 48 346.745 48 360C48 373.255 58.745 384 72 384C85.255 384 96 373.255 96 360C96 346.745 85.255 336 72 336ZM72 368C67.582 368 64 364.418 64 360C64 355.582 67.582 352 72 352C76.418 352 80 355.582 80 360C80 364.418 76.418 368 72 368Z" fill="#231F20"/>
<path d="M176 360C176 346.745 165.255 336 152 336C138.745 336 128 346.745 128 360C128 373.255 138.745 384 152 384C165.255 384 176 373.255 176 360ZM152 368C147.582 368 144 364.418 144 360C144 355.582 147.582 352 152 352C156.418 352 160 355.582 160 360C160 364.418 156.418 368 152 368Z" fill="#231F20"/>
<path d="M40 408H56V440H40V408Z" fill="#231F20"/>
<path d="M72 408H88V440H72V408Z" fill="#231F20"/>
<path d="M104 408H120V440H104V408Z" fill="#231F20"/>
<path d="M136 408H152V440H136V408Z" fill="#231F20"/>
<path d="M168 408H184V440H168V408Z" fill="#231F20"/>
</svg>
