<svg width="406" height="406" viewBox="0 0 406 406" fill="none" xmlns="http://www.w3.org/2000/svg">
<g clip-path="url(#clip0)">
<path d="M373.333 266.88C348.33 266.88 323.84 262.976 300.629 255.317C289.301 251.413 276.437 254.421 268.992 262.016L222.976 296.768C170.176 268.587 136.384 234.816 108.587 182.4L142.4 137.472C150.912 128.96 153.963 116.501 150.315 104.832C142.592 81.472 138.667 56.96 138.667 32C138.667 14.357 124.31 0 106.667 0H32C14.357 0 0 14.357 0 32C0 237.845 167.488 405.333 373.333 405.333C390.976 405.333 405.333 390.976 405.333 373.333V298.88C405.333 281.237 390.976 266.88 373.333 266.88Z" fill="#E0E0E2"/>
</g>
<defs>
<clipPath id="clip0">
<rect width="405.333" height="405.333" fill="white"/>
</clipPath>
</defs>
</svg>
