<svg width="512" height="512" viewBox="0 0 512 512" fill="none" xmlns="http://www.w3.org/2000/svg">
<path d="M136.67 10H180.67V318H136.67V10Z" fill="#63D3FD"/>
<path d="M9.99963 502C33.2736 463.676 46.6696 418.352 46.6696 370.191H270.67C270.67 418.352 257.274 463.676 234 502H9.99963Z" fill="#FFAF46"/>
<path d="M244.835 308H190.67V184.667C190.67 179.144 186.193 174.667 180.67 174.667C175.147 174.667 170.67 179.144 170.67 184.667V253.667H146.67V20H170.67V94.667C170.67 100.19 175.147 104.667 180.67 104.667C186.193 104.667 190.67 100.19 190.67 94.667V10C190.67 4.477 186.193 0 180.67 0H136.67C131.147 0 126.67 4.477 126.67 10V308H72.5046C52.7456 308 36.6696 324.076 36.6696 343.835V370.191C36.6696 415.087 24.4916 458.871 1.45263 496.809C-0.422366 499.897 -0.486366 503.755 1.28463 506.904C3.05563 510.052 6.38763 512 9.99963 512H234C237.494 512 240.734 510.177 242.547 507.19C267.487 466.122 280.669 418.749 280.669 370.191V343.835C280.67 324.076 264.595 308 244.835 308ZM146.67 273.667H170.67V308H146.67V273.667ZM72.5046 328H244.835C253.566 328 260.67 335.103 260.67 343.835V360.125H56.6696V343.835C56.6696 335.103 63.7726 328 72.5046 328ZM228.297 492H176.405C184.948 475.504 191.772 457.986 196.749 439.717C198.201 434.388 195.058 428.892 189.729 427.44C184.397 425.986 178.904 429.132 177.452 434.46C171.909 454.809 163.896 474.136 153.619 492H101.738C110.281 475.505 117.105 457.987 122.082 439.717C123.534 434.388 120.391 428.892 115.062 427.44C109.731 425.986 104.236 429.131 102.785 434.46C97.2416 454.81 89.2286 474.137 78.9526 492H27.0886C44.9696 457.554 55.0186 419.377 56.4826 380.191H260.467C258.873 419.692 247.847 458.051 228.297 492Z" fill="#231F20"/>
<path d="M347.002 387.761C337.196 387.761 327.977 391.579 321.044 398.514C317.139 402.419 317.139 408.751 321.044 412.656C324.95 416.561 331.282 416.561 335.187 412.656C338.343 409.5 342.54 407.762 347.002 407.762C351.466 407.762 355.662 409.5 358.818 412.657C361.974 415.813 363.713 420.01 363.713 424.473C363.713 428.937 361.975 433.133 358.818 436.289C354.913 440.194 354.913 446.526 358.818 450.431C360.771 452.384 363.33 453.36 365.889 453.36C368.448 453.36 371.007 452.383 372.96 450.431C379.894 443.497 383.712 434.278 383.712 424.472C383.712 414.666 379.894 405.447 372.96 398.514C366.027 391.58 356.809 387.761 347.002 387.761Z" fill="#231F20"/>
<path d="M337.852 266C347.226 266 354.852 273.626 354.852 283C354.852 288.523 359.33 293 364.852 293C370.374 293 374.852 288.523 374.852 283C374.852 262.598 358.254 246 337.852 246C317.45 246 300.852 262.598 300.852 283C300.852 288.523 305.33 293 310.852 293C316.374 293 320.852 288.523 320.852 283C320.852 273.626 328.477 266 337.852 266Z" fill="#231F20"/>
<path d="M472.286 385.035C476.978 376.453 479.476 366.788 479.476 356.8C479.476 324.274 453.014 297.812 420.488 297.812C405.197 297.812 390.699 303.639 379.666 314.22C375.68 318.043 375.547 324.373 379.369 328.359C383.19 332.345 389.522 332.477 393.508 328.655C400.8 321.663 410.382 317.812 420.488 317.812C441.986 317.812 459.476 335.302 459.476 356.8C459.476 366.799 455.684 376.312 448.799 383.586C446.28 386.247 445.419 390.072 446.553 393.557C447.688 397.041 450.636 399.625 454.239 400.293C476.119 404.349 492 423.466 492 445.75C492 471.252 471.252 492 445.75 492C429.493 492 414.723 483.704 406.239 469.807C403.361 465.094 397.208 463.604 392.494 466.482C387.779 469.36 386.291 475.514 389.169 480.228C401.313 500.123 422.466 512 445.75 512C482.28 512 512 482.28 512 445.75C512 418.962 495.972 395.367 472.286 385.035Z" fill="#231F20"/>
<path d="M180.67 129.67C178.04 129.67 175.46 130.73 173.6 132.6C171.74 134.46 170.67 137.03 170.67 139.67C170.67 142.3 171.74 144.88 173.6 146.74C175.46 148.6 178.04 149.67 180.67 149.67C183.3 149.67 185.88 148.6 187.74 146.74C189.6 144.88 190.67 142.3 190.67 139.67C190.67 137.03 189.6 134.46 187.74 132.6C185.88 130.73 183.3 129.67 180.67 129.67Z" fill="#231F20"/>
</svg>
