<svg width="512" height="512" viewBox="0 0 512 512" fill="none" xmlns="http://www.w3.org/2000/svg">
<path d="M224.512 299.46C225.007 300.091 225.485 300.74 225.963 301.397C225.485 300.74 225.007 300.092 224.512 299.46Z" fill="#78B9EB"/>
<path d="M219.255 293.393C219.605 293.751 219.912 294.135 220.253 294.502C219.913 294.135 219.605 293.751 219.255 293.393Z" fill="#78B9EB"/>
<path d="M229.402 306.654C229.709 307.175 230.051 307.678 230.349 308.207C230.05 307.678 229.709 307.2 229.402 306.654Z" fill="#78B9EB"/>
<path d="M233.813 315.418C234.043 315.99 234.231 316.587 234.453 317.125C234.231 316.587 234.044 315.989 233.813 315.418Z" fill="#78B9EB"/>
<path d="M211.738 286.882C212.276 287.292 212.839 287.684 213.368 288.102C212.838 287.676 212.275 287.292 211.738 286.882Z" fill="#78B9EB"/>
<path d="M204.655 282.18C205.346 282.573 206.02 283.033 206.703 283.417C206.02 282.999 205.346 282.581 204.655 282.18Z" fill="#78B9EB"/>
<path d="M209.195 397.653C214.238 394.479 218.966 390.843 223.326 386.782C224.529 385.647 225.587 384.35 226.458 382.942C231.134 375.399 234.59 367.164 236.698 358.545C232.542 374.468 222.78 388.361 209.195 397.653Z" fill="#78B9EB"/>
<path d="M179.123 273.647C179.934 273.741 180.727 273.886 181.521 274.014C180.727 273.92 179.934 273.741 179.123 273.647Z" fill="#78B9EB"/>
<path d="M197.453 278.528C197.752 278.656 198.025 278.818 198.306 278.946C198.025 278.818 197.751 278.656 197.453 278.528Z" fill="#78B9EB"/>
<path d="M236.433 323.234C236.655 324.036 236.86 324.838 237.056 325.649C236.86 324.838 236.655 324.036 236.433 323.234Z" fill="#78B9EB"/>
<path d="M170.351 409.6C168.414 409.6 166.528 409.404 164.634 409.233C166.528 409.387 168.414 409.6 170.351 409.6Z" fill="#78B9EB"/>
<path d="M187.938 407.313L186.914 407.578L187.938 407.313Z" fill="#78B9EB"/>
<path d="M238.285 332.399C238.353 332.902 238.456 333.389 238.515 333.892C238.455 333.389 238.353 332.902 238.285 332.399Z" fill="#78B9EB"/>
<path d="M161.818 409.02C159.053 408.653 156.305 408.141 153.6 407.467C156.305 408.141 159.053 408.653 161.818 409.02Z" fill="#78B9EB"/>
<path d="M179.49 408.969C179.097 409.02 178.731 409.097 178.338 409.14C178.722 409.097 179.106 409.02 179.49 408.969Z" fill="#78B9EB"/>
<path d="M208.085 398.404C206.873 399.198 205.627 399.94 204.364 400.665C205.653 399.983 206.848 399.172 208.085 398.404Z" fill="#78B9EB"/>
<path d="M238.882 342.349C238.882 343.091 238.805 343.817 238.771 344.551C238.805 343.817 238.874 343.04 238.882 342.349Z" fill="#78B9EB"/>
<path d="M238.165 351.053C238.02 352.06 237.892 353.075 237.704 354.065C237.884 353.058 238.029 352.06 238.165 351.053Z" fill="#78B9EB"/>
<path d="M187.631 275.277C188.365 275.465 189.107 275.627 189.833 275.84C189.107 275.627 188.365 275.465 187.631 275.277Z" fill="#78B9EB"/>
<path d="M25.6 375.467H34.987C42.061 375.467 48.384 379.853 50.876 386.475C51.849 389.035 52.898 391.552 54.025 394.027C56.978 400.478 55.621 408.081 50.612 413.108L43.947 419.841C37.3 426.506 37.3 437.292 43.947 443.956L68.062 468.071C74.727 474.718 85.513 474.718 92.177 468.071L98.876 461.398C103.902 456.389 111.505 455.032 117.957 457.985C120.432 459.12 122.949 460.17 125.509 461.134C132.131 463.617 136.526 469.94 136.534 477.015V486.402C136.534 495.831 144.171 503.469 153.601 503.469H187.734C197.163 503.469 204.801 495.832 204.801 486.402V477.015C204.801 469.941 209.187 463.618 215.809 461.126C218.369 460.153 220.886 459.104 223.361 457.977C229.812 455.024 237.415 456.381 242.442 461.39L249.141 468.063C255.806 474.71 266.592 474.71 273.256 468.063L297.371 443.948C304.018 437.283 304.018 426.497 297.371 419.833L290.698 413.134C285.689 408.108 284.332 400.505 287.285 394.053C288.42 391.578 289.47 389.061 290.434 386.501C292.917 379.862 299.258 375.467 306.349 375.467H315.736C325.165 375.467 332.803 367.83 332.803 358.4V324.267C332.803 314.838 325.166 307.2 315.736 307.2H306.349C299.275 307.2 292.952 302.814 290.46 296.192C289.487 293.632 288.438 291.115 287.311 288.64C284.35 282.189 285.715 274.586 290.724 269.559L297.397 262.86C304.044 256.195 304.044 245.409 297.397 238.745L273.28 214.63C266.615 207.983 255.829 207.983 249.165 214.63L242.466 221.303C237.44 226.312 229.837 227.669 223.385 224.716C220.91 223.581 218.393 222.531 215.833 221.567C209.194 219.084 204.799 212.744 204.799 205.652V196.265C204.799 186.836 197.162 179.198 187.732 179.198H153.6C144.171 179.198 136.533 186.835 136.533 196.265V205.652C136.533 212.726 132.147 219.049 125.525 221.541C122.965 222.514 120.448 223.563 117.973 224.69C111.522 227.643 103.919 226.286 98.892 221.277L92.159 214.612C85.494 207.965 74.708 207.965 68.044 214.612L43.963 238.744C37.316 245.409 37.316 256.195 43.963 262.859L50.636 269.558C55.645 274.584 57.01 282.187 54.049 288.639C52.914 291.114 51.864 293.631 50.9 296.191C48.408 302.821 42.068 307.208 34.985 307.199H25.6C16.171 307.199 8.533 314.836 8.533 324.266V358.4C8.533 367.829 16.171 375.467 25.6 375.467ZM153.6 275.2C159.181 273.792 164.915 273.075 170.667 273.067C173.492 273.084 176.316 273.28 179.124 273.647C179.935 273.741 180.728 273.886 181.522 274.014C183.596 274.338 185.627 274.765 187.632 275.277C188.366 275.465 189.108 275.627 189.834 275.84C192.428 276.582 194.971 277.478 197.454 278.528C197.753 278.656 198.026 278.818 198.307 278.946C200.474 279.91 202.591 280.994 204.647 282.18C205.338 282.581 206.012 283.033 206.695 283.417C208.402 284.501 210.108 285.661 211.73 286.882C212.268 287.292 212.831 287.676 213.36 288.102C215.417 289.757 217.388 291.524 219.248 293.393C219.598 293.751 219.905 294.135 220.246 294.502C221.748 296.081 223.173 297.736 224.513 299.46C225.008 300.091 225.486 300.74 225.964 301.397C227.184 303.104 228.336 304.81 229.377 306.654C229.684 307.175 230.026 307.678 230.324 308.207C231.621 310.537 232.773 312.952 233.789 315.418C234.019 315.99 234.207 316.579 234.429 317.125C235.18 319.113 235.846 321.136 236.409 323.201C236.631 324.003 236.836 324.805 237.032 325.616C237.553 327.843 237.962 330.096 238.261 332.366C238.329 332.869 238.432 333.356 238.491 333.859C238.773 336.342 238.926 338.834 238.935 341.334C238.935 341.675 238.935 342.008 238.884 342.349C238.884 343.074 238.807 343.817 238.773 344.551C238.671 346.744 238.474 348.912 238.167 351.053C238.03 352.06 237.885 353.058 237.706 354.065C237.416 355.592 237.04 357.077 236.656 358.571C234.548 367.19 231.092 375.424 226.416 382.968C225.546 384.376 224.487 385.673 223.284 386.808C218.941 390.853 214.222 394.488 209.195 397.654L208.086 398.379C206.849 399.147 205.611 399.958 204.365 400.64C199.202 403.567 193.681 405.794 187.938 407.287L186.914 407.552C184.465 408.149 181.99 408.619 179.49 408.943C179.106 408.994 178.722 409.071 178.338 409.114C175.795 409.421 173.227 409.583 170.667 409.6H170.351C168.414 409.6 166.528 409.404 164.634 409.233C163.704 409.148 162.74 409.156 161.818 409.037C159.053 408.67 156.305 408.141 153.6 407.467C117.077 398.021 95.121 360.756 104.567 324.233C110.788 300.186 129.562 281.421 153.6 275.2Z" fill="#FFAF46"/>
<path d="M230.349 308.207C231.646 310.537 232.798 312.952 233.814 315.418C232.798 312.951 231.646 310.537 230.349 308.207Z" fill="#78B9EB"/>
<path d="M234.453 317.158C235.204 319.146 235.87 321.169 236.433 323.234C235.87 321.169 235.204 319.147 234.453 317.158Z" fill="#78B9EB"/>
<path d="M238.933 341.333C238.924 338.85 238.788 336.367 238.515 333.892C238.814 336.699 238.933 339.524 238.882 342.349C238.933 342.007 238.933 341.675 238.933 341.333Z" fill="#78B9EB"/>
<path d="M237.056 325.649C237.577 327.876 237.986 330.129 238.285 332.399C237.986 330.129 237.577 327.876 237.056 325.649Z" fill="#78B9EB"/>
<path d="M181.521 274.014C183.595 274.338 185.626 274.765 187.631 275.277C185.626 274.773 183.595 274.338 181.521 274.014Z" fill="#78B9EB"/>
<path d="M170.667 273.067C173.492 273.084 176.316 273.28 179.124 273.647C176.316 273.28 173.491 273.084 170.667 273.067Z" fill="#78B9EB"/>
<path d="M198.315 278.946C200.482 279.91 202.599 280.985 204.655 282.18C202.598 280.994 200.482 279.91 198.315 278.946Z" fill="#78B9EB"/>
<path d="M189.833 275.84C192.427 276.582 194.97 277.478 197.453 278.528C194.97 277.478 192.427 276.582 189.833 275.84Z" fill="#78B9EB"/>
<path d="M225.963 301.397C227.183 303.104 228.335 304.81 229.376 306.654C228.335 304.845 227.183 303.087 225.963 301.397Z" fill="#78B9EB"/>
<path d="M220.254 294.502C221.747 296.081 223.172 297.736 224.521 299.46C223.181 297.737 221.756 296.081 220.254 294.502Z" fill="#78B9EB"/>
<path d="M206.703 283.418C208.41 284.502 210.116 285.662 211.738 286.883C210.108 285.662 208.435 284.501 206.703 283.418Z" fill="#78B9EB"/>
<path d="M213.333 288.102C215.398 289.749 217.361 291.515 219.221 293.393C217.361 291.524 215.39 289.758 213.333 288.102Z" fill="#78B9EB"/>
<path d="M204.365 400.666C199.177 403.542 193.664 405.769 187.938 407.313C193.681 405.82 199.202 403.593 204.365 400.666Z" fill="#78B9EB"/>
<path d="M186.88 407.578C184.431 408.175 181.956 408.645 179.456 408.969C181.956 408.644 184.431 408.175 186.88 407.578Z" fill="#78B9EB"/>
<path d="M170.667 409.6C173.236 409.591 175.796 409.438 178.347 409.139C175.693 409.446 173.031 409.591 170.36 409.583L170.667 409.6Z" fill="#78B9EB"/>
<path d="M164.634 409.216C163.704 409.131 162.74 409.139 161.818 409.02C162.739 409.139 163.703 409.131 164.634 409.216Z" fill="#78B9EB"/>
<path d="M238.771 344.55C238.677 346.7 238.464 348.868 238.165 351.052C238.473 348.911 238.669 346.743 238.771 344.55Z" fill="#78B9EB"/>
<path d="M209.195 397.653C208.828 397.892 208.461 398.148 208.086 398.378L209.195 397.653Z" fill="#78B9EB"/>
<path d="M237.705 354.065C237.432 355.558 237.022 357.069 236.655 358.571C237.039 357.077 237.414 355.593 237.705 354.065Z" fill="#78B9EB"/>
<path d="M315.733 298.667H306.346C302.813 298.676 299.656 296.474 298.444 293.154C297.403 290.423 296.285 287.752 295.082 285.107C293.589 281.89 294.271 278.084 296.789 275.584L303.479 268.885C313.412 258.867 313.395 242.705 303.436 232.712L279.321 208.597C269.311 198.647 253.149 198.647 243.14 208.597L236.45 215.279C233.95 217.788 230.144 218.47 226.927 216.986C224.282 215.783 221.611 214.665 218.872 213.573C215.535 212.37 213.325 209.195 213.334 205.654V196.267C213.334 182.127 201.874 170.667 187.734 170.667H153.6C139.46 170.667 128 182.127 128 196.267V205.654C128.009 209.187 125.807 212.344 122.487 213.556C119.756 214.597 117.085 215.715 114.44 216.918C111.223 218.403 107.417 217.72 104.917 215.211L98.218 208.521C88.208 198.58 72.055 198.58 62.045 208.521L37.93 232.713C27.98 242.723 27.98 258.885 37.93 268.894L44.612 275.584C47.129 278.084 47.812 281.89 46.319 285.107C45.116 287.752 43.998 290.423 42.948 293.162C41.728 296.499 38.536 298.7 34.986 298.666H25.6C11.46 298.666 0 310.126 0 324.266V358.4C0 372.54 11.46 384 25.6 384H34.987C38.52 383.991 41.677 386.193 42.889 389.513C43.93 392.244 45.048 394.915 46.251 397.56C47.744 400.777 47.062 404.583 44.544 407.083L37.854 413.782C27.913 423.792 27.913 439.945 37.854 449.955L61.969 474.07C71.979 484.02 88.141 484.02 98.15 474.07L104.84 467.388C107.34 464.879 111.146 464.197 114.363 465.681C117.008 466.884 119.679 468.002 122.418 469.094C125.772 470.28 128.007 473.455 127.999 477.013V486.4C127.999 500.54 139.459 512 153.599 512H187.732C201.872 512 213.332 500.54 213.332 486.4V477.013C213.323 473.48 215.525 470.323 218.845 469.111C221.576 468.07 224.247 466.952 226.892 465.749C230.109 464.264 233.915 464.947 236.415 467.456L243.114 474.146C253.132 484.07 269.286 484.053 279.287 474.103L303.402 449.988C313.352 439.978 313.352 423.816 303.402 413.807L296.72 407.117C294.203 404.617 293.52 400.811 295.013 397.594C296.216 394.949 297.334 392.278 298.426 389.539C299.629 386.202 302.804 383.992 306.345 384.001H315.732C329.872 384.001 341.332 372.541 341.332 358.401V324.268C341.333 310.127 329.873 298.667 315.733 298.667ZM324.267 358.4C324.267 363.11 320.444 366.933 315.734 366.933H306.347C295.74 366.976 286.242 373.529 282.454 383.436C281.549 385.825 280.568 388.181 279.519 390.493C275.133 400.178 277.164 411.562 284.639 419.131L291.312 425.813C294.649 429.141 294.649 434.543 291.321 437.879L291.312 437.888L267.197 462.003C263.869 465.331 258.467 465.331 255.131 462.003L248.441 455.321C240.88 447.846 229.488 445.806 219.803 450.201C217.49 451.251 215.135 452.232 212.763 453.136C202.864 456.925 196.311 466.414 196.268 477.012V486.399C196.268 491.109 192.445 494.932 187.735 494.932H153.6C148.89 494.932 145.067 491.109 145.067 486.399V477.012C145.024 466.405 138.471 456.907 128.564 453.119C126.175 452.214 123.819 451.233 121.507 450.184C111.822 445.798 100.438 447.837 92.869 455.304L86.187 461.977C82.859 465.314 77.457 465.314 74.121 461.986L74.112 461.977L49.997 437.887C46.669 434.559 46.669 429.149 49.997 425.821L56.679 419.131C64.154 411.562 66.185 400.178 61.799 390.493C60.749 388.18 59.768 385.825 58.864 383.453C55.084 373.546 45.595 366.975 34.988 366.932H25.6C20.89 366.932 17.067 363.109 17.067 358.399V324.266C17.067 319.556 20.89 315.733 25.6 315.733H34.987C45.594 315.69 55.092 309.137 58.88 299.23C59.785 296.841 60.766 294.485 61.815 292.173C66.201 282.488 64.17 271.104 56.695 263.535L49.988 256.853C46.651 253.525 46.651 248.123 49.979 244.787L49.988 244.778L74.103 220.663C77.44 217.335 82.833 217.335 86.169 220.663L92.859 227.345C100.42 234.82 111.812 236.86 121.497 232.465C123.81 231.415 126.165 230.434 128.537 229.53C138.453 225.75 145.015 216.261 145.066 205.654V196.267C145.066 191.557 148.889 187.734 153.599 187.734H187.732C192.442 187.734 196.265 191.557 196.265 196.267V205.654C196.308 216.261 202.861 225.759 212.768 229.547C215.157 230.452 217.513 231.433 219.825 232.482C229.51 236.877 240.902 234.837 248.463 227.362L255.145 220.689C258.49 217.378 263.875 217.378 267.22 220.689L291.335 244.804C294.663 248.132 294.663 253.542 291.335 256.87L284.653 263.56C277.178 271.129 275.147 282.513 279.533 292.198C280.583 294.511 281.564 296.866 282.468 299.238C286.257 309.137 295.746 315.69 306.344 315.733H315.731C320.441 315.733 324.264 319.556 324.264 324.266V358.4H324.267Z" fill="#231F20"/>
<path d="M247.296 337.92C247.211 335.872 247.066 333.833 246.818 331.802C246.545 329.617 246.221 327.45 245.768 325.325C245.469 323.934 245.077 322.56 244.701 321.178C244.223 319.42 243.686 317.688 243.088 315.981C242.67 314.795 242.235 313.617 241.791 312.448C240.69 309.717 239.436 307.046 238.028 304.461C237.917 304.265 237.849 304.051 237.738 303.855C235.519 299.904 232.951 296.158 230.058 292.668C229.811 292.361 229.529 292.071 229.273 291.772C228.095 290.381 226.884 289.033 225.612 287.744C224.946 287.053 224.247 286.404 223.547 285.739C222.694 284.945 221.84 284.16 220.987 283.409C219.954 282.513 218.896 281.643 217.821 280.798L216.422 279.757C203.221 269.867 187.161 264.525 170.666 264.534C169.813 264.534 168.959 264.662 168.106 264.696C166.288 264.747 164.462 264.85 162.628 265.037C161.664 265.139 160.691 265.25 159.727 265.387C156.945 265.754 154.189 266.266 151.458 266.932C110.37 277.547 85.666 319.463 96.281 360.56C103.278 387.636 124.432 408.773 151.517 415.745C151.654 415.745 151.799 415.788 151.944 415.822C154.888 416.556 157.875 417.128 160.887 417.529C162.875 417.776 164.864 417.828 166.86 417.922C168.191 417.99 169.42 418.187 170.811 418.187C173.243 418.187 175.769 418.025 178.346 417.769C178.619 417.769 178.892 417.692 179.199 417.658C181.273 417.428 183.372 417.12 185.514 416.694C186.367 416.532 187.161 416.319 187.98 416.131C189.482 415.781 190.975 415.414 192.511 414.962C193.706 414.604 194.866 414.185 196.035 413.776C197.204 413.366 198.416 412.923 199.628 412.462C200.84 412.001 201.855 411.472 202.956 410.96C204.39 410.303 205.815 409.654 207.223 408.886H207.274C215.236 404.619 222.591 399.312 229.145 393.091C230.911 391.436 232.456 389.558 233.719 387.493C240.384 376.818 244.753 364.871 246.57 352.421C246.809 350.774 247.022 349.127 247.15 347.446C247.269 345.901 247.355 344.365 247.389 342.829C247.389 342.343 247.457 341.882 247.457 341.395C247.467 340.19 247.347 339.081 247.296 337.92ZM155.674 283.477C160.572 282.24 165.615 281.608 170.667 281.6C173.108 281.617 175.54 281.779 177.963 282.095C178.612 282.172 179.252 282.291 179.892 282.385C181.735 282.675 183.561 283.042 185.362 283.503C185.951 283.657 186.54 283.793 187.12 283.955C191.66 285.261 196.029 287.104 200.133 289.433C200.79 289.817 201.43 290.218 202.079 290.619C203.427 291.472 204.733 292.326 206.021 293.298C206.712 293.801 207.412 294.296 208.078 294.834C209.751 296.174 211.355 297.599 212.882 299.101C213.488 299.715 214.043 300.39 214.631 301.03C215.612 302.097 216.568 303.189 217.481 304.341C218.112 305.135 218.718 305.954 219.316 306.782C220.169 308.011 221.023 309.291 221.791 310.588C222.218 311.296 222.644 311.987 223.08 312.713C224.181 314.735 225.162 316.826 226.015 318.968C226.356 319.821 226.646 320.675 226.954 321.528C227.509 323.098 227.987 324.685 228.405 326.29C228.618 327.143 228.857 327.903 229.036 328.731C229.531 331.035 229.898 333.373 230.12 335.72C230.171 336.343 230.171 336.974 230.214 337.597C230.333 339.56 230.368 341.531 230.291 343.511C230.291 344.219 230.231 344.928 230.189 345.627C230.035 347.692 229.771 349.757 229.421 351.831C226.23 369.572 215.213 384.932 199.435 393.644C198.377 394.199 197.336 394.719 196.295 395.197L195.587 395.538C190.629 397.791 185.398 399.369 180.022 400.248C179.647 400.308 179.263 400.376 178.879 400.427C177.812 400.581 176.763 400.709 175.722 400.802C174.348 400.921 172.966 400.99 171.558 401.015C170.961 401.015 170.372 401.015 169.775 401.015C167.753 400.989 165.739 400.87 163.733 400.64L162.709 400.521C160.362 400.214 158.033 399.779 155.737 399.207C123.78 391.024 104.503 358.486 112.678 326.529C118.08 305.409 134.566 288.914 155.677 283.487L155.674 283.477Z" fill="#231F20"/>
<path d="M486.4 179.2H459.563C455.988 179.234 452.779 176.981 451.61 173.602C448.965 165.675 445.765 157.943 442.027 150.468C440.44 147.242 441.105 143.36 443.665 140.834L462.694 121.779C472.678 111.786 472.678 95.582 462.694 85.589L426.41 49.365C416.417 39.381 400.213 39.381 390.22 49.365L371.2 68.378C368.683 70.938 364.8 71.604 361.574 70.025C354.099 66.27 346.368 63.053 338.432 60.391C335.036 59.23 332.766 56.022 332.8 52.438V25.6C332.8 11.46 321.34 0 307.2 0H256C241.86 0 230.4 11.46 230.4 25.6V52.437C230.434 56.012 228.181 59.221 224.802 60.39C216.875 63.052 209.143 66.269 201.668 70.016C198.442 71.603 194.551 70.946 192.034 68.378L172.979 49.349C162.969 39.391 146.799 39.391 136.789 49.349L100.574 85.564C90.581 95.557 90.581 111.77 100.574 121.762L128.555 149.794C131.943 153.071 137.344 152.985 140.621 149.606C143.821 146.304 143.83 141.064 140.638 137.745L112.64 109.722C109.312 106.385 109.312 100.992 112.64 97.656L148.855 61.441C152.183 58.113 157.593 58.113 160.921 61.441L179.984 80.47C187.698 88.227 199.517 90.172 209.305 85.283C216.063 81.895 223.052 78.994 230.22 76.588C240.562 73.089 247.509 63.361 247.466 52.439V25.6C247.466 20.89 251.289 17.067 255.999 17.067H307.199C311.909 17.067 315.732 20.89 315.732 25.6V52.437C315.689 63.36 322.635 73.079 332.978 76.578C340.146 78.984 347.143 81.894 353.902 85.282C363.69 90.146 375.491 88.2 383.214 80.461L402.277 61.44C405.605 58.112 411.015 58.112 414.343 61.44L450.558 97.664C453.886 100.992 453.886 106.394 450.558 109.722L431.529 128.785C423.781 136.499 421.835 148.318 426.716 158.106C430.104 164.864 433.005 171.853 435.411 179.021C438.91 189.363 448.638 196.318 459.56 196.267H486.4C491.11 196.267 494.933 200.09 494.933 204.8V256C494.933 260.71 491.11 264.533 486.4 264.533H459.563C448.64 264.49 438.921 271.436 435.422 281.779C433.016 288.947 430.106 295.944 426.718 302.703C421.845 312.491 423.791 324.301 431.539 332.015L450.568 351.078C453.896 354.406 453.896 359.816 450.568 363.144L414.335 399.359C411.007 402.687 405.605 402.687 402.277 399.359L374.236 371.378C370.959 367.99 365.558 367.905 362.17 371.182C358.782 374.459 358.697 379.86 361.974 383.248C362.042 383.316 362.111 383.385 362.187 383.453L390.219 411.434C400.212 421.418 416.416 421.418 426.409 411.434L462.624 375.227C472.617 365.226 472.617 349.03 462.624 339.029L443.622 320C441.062 317.483 440.396 313.6 441.975 310.374C445.73 302.899 448.947 295.168 451.609 287.232C452.77 283.836 455.978 281.566 459.562 281.6H486.4C500.54 281.6 512 270.14 512 256V204.8C512 190.66 500.54 179.2 486.4 179.2Z" fill="#231F20"/>
<path d="M360.038 151.962C316.689 108.707 246.511 108.707 203.161 151.962C199.884 155.35 199.978 160.751 203.374 164.028C206.685 167.219 211.924 167.219 215.227 164.028C251.639 127.13 311.073 126.729 347.972 163.141C384.871 199.553 385.271 258.987 348.859 295.886C348.56 296.185 348.27 296.483 347.972 296.773C344.584 300.05 344.49 305.451 347.767 308.839C351.044 312.227 356.445 312.321 359.833 309.044C359.901 308.976 359.97 308.907 360.038 308.839C403.294 265.489 403.294 195.311 360.038 151.962Z" fill="#231F20"/>
</svg>
