<svg width="512" height="512" viewBox="0 0 512 512" fill="none" xmlns="http://www.w3.org/2000/svg">
<g clip-path="url(#clip0)">
<path d="M10 345.117H471.765V377.966C471.765 394.553 458.319 408 441.731 408H40.034C23.447 408 10 394.554 10 377.966V345.117Z" fill="#63D3FD"/>
<path d="M148.928 502H332.928V488.036C332.928 473.657 321.271 462 306.892 462H174.964C160.585 462 148.928 473.657 148.928 488.036V502Z" fill="#63D3FD"/>
<path d="M502 151.463V108.537L501.999 108.536H478.869C476.339 97.041 471.819 86.293 465.681 76.675V76.671L482.029 60.323V60.322L451.676 29.969H451.675L435.327 46.317H435.323C425.706 40.178 414.958 35.659 403.462 33.129V9.99905L403.461 9.99805H360.535L360.534 9.99905V33.156C349.055 35.698 338.323 40.224 328.721 46.365H328.717L312.322 29.97L281.968 60.323L298.392 76.748V76.752C292.278 86.35 287.775 97.071 285.251 108.536H261.997L262 108.537V151.463L262.001 151.464H285.282C287.817 162.913 292.327 173.618 298.443 183.201V183.205L281.971 199.677L312.324 230.031H312.325L328.797 213.559L328.8 213.558C338.384 219.675 349.089 224.185 360.538 226.72V250.001L403.464 250.002L403.465 250.001V226.747C414.93 224.224 425.652 219.72 435.249 213.606H435.253L451.677 230.03H451.678L482.031 199.677V199.676L465.636 183.281V183.277C471.777 173.675 476.303 162.943 478.845 151.464L502 151.463Z" fill="#FFAF46"/>
<path d="M217.696 197.225C217.696 193.44 217.305 189.746 216.564 186.181L232.059 177.235L215.175 147.991L199.669 156.943C194.187 152.04 187.698 148.24 180.551 145.89V128H146.783V145.89C139.635 148.24 133.147 152.039 127.665 156.943L112.159 147.991L95.275 177.235L110.77 186.181C110.029 189.747 109.638 193.44 109.638 197.225C109.638 201.01 110.029 204.704 110.77 208.269L95.275 217.215L112.159 246.459L127.665 237.507C133.147 242.41 139.636 246.21 146.783 248.56V266.45H180.551V248.56C187.699 246.21 194.187 242.411 199.669 237.507L215.175 246.459L232.059 217.215L216.564 208.269C217.305 204.704 217.696 201.01 217.696 197.225Z" fill="white"/>
<path d="M217.696 197.225C217.696 193.44 217.305 189.746 216.564 186.181L232.059 177.235L215.175 147.991L199.669 156.943C194.187 152.04 187.698 148.24 180.551 145.89V128H146.783V145.89C139.635 148.24 133.147 152.039 127.665 156.943L112.159 147.991L95.275 177.235L110.77 186.181C110.029 189.747 109.638 193.44 109.638 197.225C109.638 201.01 110.029 204.704 110.77 208.269L95.275 217.215L112.159 246.459L127.665 237.507C133.147 242.41 139.636 246.21 146.783 248.56V266.45H180.551V248.56C187.699 246.21 194.187 242.411 199.669 237.507L215.175 246.459L232.059 217.215L216.564 208.269C217.305 204.704 217.696 201.01 217.696 197.225Z" fill="#E4667F"/>
<path d="M240.93 364.99C238.3 364.99 235.72 366.059 233.86 367.92C232.001 369.78 230.93 372.35 230.93 374.99C230.93 377.62 232 380.2 233.86 382.059C235.72 383.919 238.3 384.99 240.93 384.99C243.56 384.99 246.14 383.92 248 382.059C249.859 380.189 250.93 377.62 250.93 374.99C250.93 372.349 249.86 369.78 248 367.92C246.14 366.06 243.56 364.99 240.93 364.99Z" fill="#231F20"/>
<path d="M431.77 335.12C429.13 335.12 426.55 336.189 424.69 338.05C422.831 339.91 421.77 342.48 421.77 345.12C421.77 347.75 422.831 350.33 424.69 352.189C426.55 354.049 429.13 355.12 431.77 355.12C434.4 355.12 436.97 354.05 438.84 352.189C440.7 350.319 441.77 347.75 441.77 345.12C441.77 342.49 440.701 339.91 438.84 338.05C436.97 336.189 434.399 335.12 431.77 335.12Z" fill="#231F20"/>
<path d="M135.939 287C133.309 287 130.729 288.069 128.87 289.93C127.01 291.79 125.939 294.37 125.939 297C125.939 299.63 127.009 302.21 128.87 304.069C130.729 305.929 133.309 307 135.939 307C138.569 307 141.149 305.93 143.009 304.069C144.869 302.21 145.939 299.63 145.939 297C145.939 294.37 144.87 291.79 143.009 289.93C141.148 288.07 138.569 287 135.939 287Z" fill="#231F20"/>
<path d="M511.999 108.537C511.999 103.014 507.521 98.537 501.999 98.537H486.6C484.497 91.514 481.693 84.74 478.215 78.282L489.101 67.395C493.006 63.49 493.006 57.158 489.101 53.253L458.747 22.9C454.841 18.995 448.511 18.995 444.604 22.9L433.718 33.786C427.259 30.308 420.487 27.504 413.463 25.4V10C413.463 4.478 408.985 0 403.463 0H360.536C355.014 0 350.536 4.477 350.536 10V25.437C343.527 27.545 336.768 30.351 330.324 33.828L319.395 22.899C315.489 18.994 309.159 18.994 305.252 22.899L274.898 53.253C272.518 55.634 271.597 58.915 272.118 61.999H40.033C17.959 62 0 79.959 0 102.034V377.967C0 400.041 17.959 418 40.033 418H198.928V452H174.964C155.094 452 138.928 468.166 138.928 488.036V502C138.928 507.522 143.406 512 148.928 512H332.928C338.45 512 342.928 507.522 342.928 502V488.036C342.928 468.166 326.763 452 306.893 452H282.928V418H441.732C463.807 418 481.766 400.041 481.766 377.967V214.081L489.101 206.746C490.976 204.871 492.03 202.327 492.03 199.675C492.03 197.023 490.976 194.479 489.101 192.604L478.172 181.676C481.65 175.231 484.455 168.473 486.564 161.464H502.001C504.653 161.464 507.197 160.41 509.072 158.535C510.947 156.66 512.001 154.116 512.001 151.464L511.999 108.537ZM322.928 488.036V492H158.928V488.036C158.928 479.193 166.121 472 174.964 472H306.893C315.734 472 322.928 479.193 322.928 488.036ZM262.928 452H218.928V418H262.928V452ZM461.766 377.967C461.766 389.013 452.779 398 441.732 398H40.033C28.987 398 20 389.013 20 377.967V355.117H391.771C397.293 355.117 401.771 350.639 401.771 345.117C401.771 339.595 397.293 335.117 391.771 335.117H20V307H96.333C101.855 307 106.333 302.522 106.333 297C106.333 291.478 101.855 287 96.333 287H20V102.034C20 90.987 28.987 82 40.033 82H284.009C281.4 87.327 279.228 92.849 277.524 98.537H262.001C259.349 98.537 256.805 99.591 254.93 101.466C253.055 103.341 252 105.885 252 108.537L252.001 151.463C252.001 156.986 256.479 161.463 262.001 161.463H277.561C279.661 168.442 282.453 175.173 285.91 181.594L274.9 192.605C270.995 196.51 270.995 202.842 274.9 206.747L305.254 237.1C309.16 241.005 315.49 241.005 319.397 237.1L330.407 226.09C336.828 229.548 343.56 232.34 350.538 234.439L350.537 250C350.537 255.522 355.015 260 360.537 260L403.464 259.999C408.986 259.999 413.464 255.522 413.464 249.999V234.475C420.457 232.381 427.203 229.591 433.638 226.133L444.605 237.1C446.481 238.975 449.024 240.029 451.676 240.029C454.328 240.029 456.871 238.975 458.747 237.1L461.766 234.081V377.967ZM492 141.463H478.843C474.154 141.463 470.094 144.722 469.079 149.301C466.826 159.474 462.835 169.09 457.215 177.879C454.683 181.828 455.235 187.023 458.563 190.351L467.888 199.676L451.676 215.887L442.323 206.534C439.278 203.491 434.627 202.735 430.776 204.66C430.466 204.814 430.166 204.985 429.875 205.17C421.087 210.769 411.478 214.741 401.314 216.979C396.729 217.988 393.463 222.05 393.463 226.745V240H370.536V226.719C370.536 222.029 367.277 217.969 362.698 216.955C352.55 214.708 342.954 210.728 334.178 205.127C332.572 204.101 330.704 203.556 328.798 203.556C326.146 203.556 323.6 204.611 321.724 206.486L312.324 215.887L296.113 199.675L305.513 190.275C308.841 186.947 309.393 181.753 306.862 177.804C301.266 169.033 297.291 159.444 295.045 149.301C294.031 144.722 289.971 141.463 285.281 141.463H272L272.001 118.537H285.254C289.948 118.537 294.011 115.271 295.021 110.686C297.255 100.533 301.223 90.933 306.815 82.148C309.345 78.2 308.794 73.005 305.466 69.678L296.112 60.324L312.324 44.113L321.648 53.437C325.077 56.865 330.377 57.282 334.261 54.695C343.011 49.123 352.577 45.162 362.698 42.922C367.276 41.908 370.536 37.848 370.536 33.159L370.537 20H393.464V33.13C393.464 37.824 396.73 41.887 401.315 42.896C411.506 45.14 421.139 49.127 429.944 54.748C430.238 54.936 430.542 55.107 430.853 55.263C434.7 57.187 439.356 56.433 442.4 53.389L451.676 44.112L467.887 60.324L458.611 69.6C458.145 70.066 457.727 70.576 457.362 71.124C455.155 74.434 455.123 78.734 457.264 82.073C462.879 90.874 466.863 100.5 469.103 110.684C470.112 115.269 474.174 118.535 478.87 118.535H492.001V141.463H492Z" fill="#231F20"/>
<path d="M382 68C347.813 68 320 95.813 320 130C320 164.187 347.813 192 382 192C416.187 192 444 164.187 444 130C444 95.813 416.187 68 382 68ZM382 172C358.841 172 340 153.159 340 130C340 106.841 358.841 88 382 88C405.159 88 424 106.841 424 130C424 153.159 405.159 172 382 172Z" fill="#231F20"/>
<path d="M163.67 187.22C161.029 187.22 158.46 188.29 156.6 190.15C154.73 192.01 153.67 194.59 153.67 197.23C153.67 199.86 154.73 202.44 156.6 204.3C158.46 206.16 161.03 207.22 163.67 207.22C166.3 207.22 168.88 206.16 170.74 204.3C172.599 202.44 173.67 199.86 173.67 197.23C173.67 194.59 172.6 192.01 170.74 190.15C168.88 188.29 166.3 187.22 163.67 187.22Z" fill="#231F20"/>
<path d="M241.719 179.822C242.406 177.26 242.046 174.531 240.72 172.234L223.835 142.99C221.074 138.208 214.958 136.568 210.175 139.33L200.557 144.883C197.398 142.649 194.056 140.716 190.551 139.097V128C190.551 122.477 186.073 118 180.551 118H146.782C141.26 118 136.782 122.477 136.782 128V139.097C133.277 140.717 129.935 142.649 126.776 144.883L117.158 139.33C114.861 138.004 112.131 137.646 109.57 138.331C107.007 139.018 104.824 140.693 103.498 142.99L86.614 172.234C83.852 177.017 85.491 183.132 90.274 185.894L99.896 191.45C99.724 193.368 99.637 195.297 99.637 197.224C99.637 199.151 99.724 201.08 99.896 202.998L90.274 208.554C85.491 211.315 83.852 217.431 86.614 222.214L103.498 251.458C104.824 253.755 107.008 255.431 109.57 256.117C112.131 256.803 114.861 256.445 117.158 255.118L126.776 249.565C129.935 251.799 133.277 253.732 136.782 255.351V266.448C136.782 271.97 141.26 276.448 146.782 276.448H180.551C186.073 276.448 190.551 271.97 190.551 266.448V255.351C194.056 253.731 197.398 251.799 200.557 249.565L210.175 255.118C214.959 257.879 221.073 256.241 223.835 251.458L240.72 222.214C242.046 219.917 242.406 217.188 241.719 214.626C241.032 212.064 239.357 209.88 237.06 208.554L227.437 203C227.61 201.081 227.697 199.152 227.697 197.226C227.697 195.3 227.61 193.371 227.437 191.451L237.06 185.895C239.356 184.568 241.032 182.384 241.719 179.822ZM206.773 188.213C207.385 191.163 207.696 194.195 207.696 197.225C207.696 200.255 207.385 203.287 206.773 206.237C205.896 210.462 207.828 214.773 211.564 216.93L218.399 220.876L211.514 232.8L204.668 228.848C200.929 226.689 196.223 227.174 193.002 230.055C188.442 234.133 183.202 237.163 177.427 239.061C173.323 240.41 170.55 244.241 170.55 248.561V256.451H156.781V248.561C156.781 244.241 154.008 240.41 149.904 239.061C144.129 237.163 138.888 234.132 134.329 230.055C131.109 227.174 126.404 226.688 122.663 228.848L115.817 232.8L108.933 220.876L115.767 216.93C119.503 214.773 121.435 210.462 120.558 206.237C119.947 203.29 119.636 200.258 119.636 197.225C119.636 194.192 119.947 191.161 120.558 188.213C121.435 183.988 119.504 179.678 115.767 177.52L108.933 173.574L115.817 161.651L122.663 165.603C126.402 167.763 131.108 167.277 134.329 164.396C138.889 160.318 144.129 157.288 149.904 155.39C154.008 154.041 156.781 150.21 156.781 145.89V138H170.55V145.89C170.55 150.21 173.323 154.041 177.427 155.39C183.202 157.288 188.443 160.319 193.002 164.396C196.221 167.275 200.926 167.762 204.668 165.603L211.514 161.65L218.399 173.574L211.564 177.52C207.828 179.678 205.896 183.989 206.773 188.213Z" fill="#231F20"/>
</g>
<defs>
<clipPath id="clip0">
<rect width="512" height="512" fill="white"/>
</clipPath>
</defs>
</svg>
