<svg width="512" height="512" viewBox="0 0 512 512" fill="none" xmlns="http://www.w3.org/2000/svg">
<path d="M230.4 401.067H196.267V435.2H230.4V401.067Z" fill="#FFAF46"/>
<path d="M264.533 401.067H230.4V435.2H264.533V401.067Z" fill="#FFAF46"/>
<path d="M298.666 401.067H264.533V435.2H298.666V401.067Z" fill="#FFAF46"/>
<path d="M366.933 401.067H332.8V435.2H366.933V401.067Z" fill="#FFAF46"/>
<path d="M332.8 401.067H298.667V435.2H332.8V401.067Z" fill="#FFAF46"/>
<path d="M162.133 401.067H128V435.2H162.133V401.067Z" fill="#FFAF46"/>
<path d="M42.6669 264.533H17.0669V349.867H42.6669V332.8V264.533Z" fill="#E6E7E8"/>
<path d="M426.291 145.067H324.267L290.134 170.667H256L221.867 145.067H119.467L85.333 179.2H42.667V332.8H85.334L119.467 366.933H221.867L256 341.333H290.133L324.266 366.933H426.291L474.308 324.266H503.466V187.733H474.308L426.291 145.067ZM231.006 316.339C197.683 349.662 143.65 349.662 110.328 316.339C77.006 283.016 77.005 228.983 110.328 195.661C143.651 162.339 197.684 162.338 231.006 195.661C247.006 211.661 256 233.37 256 256C256.026 278.639 247.031 300.356 231.006 316.339ZM435.806 316.339C402.483 349.662 348.45 349.662 315.128 316.339C281.806 283.016 281.805 228.983 315.128 195.661C348.451 162.339 402.484 162.338 435.806 195.661C451.806 211.661 460.8 233.37 460.8 256C460.826 278.639 451.832 300.356 435.806 316.339Z" fill="#E13957"/>
<path d="M426.291 366.933H324.267L290.134 341.333H256L221.867 366.933H119.467L85.333 332.8H42.667V401.067H469.334C488.184 401.067 503.467 385.784 503.467 366.934V324.267H474.309L426.291 366.933Z" fill="#64C37D"/>
<path d="M469.333 110.933H42.667V179.2H85.334L119.467 145.067H221.867L256 170.667H290.133L324.266 145.067H426.291L474.308 187.734H503.466V145.067C503.467 126.217 488.184 110.933 469.333 110.933Z" fill="#64C37D"/>
<path d="M381.542 221.278L375.466 230.4C382.259 230.391 388.769 233.097 393.565 237.901L404.317 235.751C416.332 233.345 426.128 224.692 430.002 213.069L435.805 195.661C419.822 179.635 398.105 170.641 375.466 170.667L383.675 187.085C389.154 198.042 388.335 211.089 381.542 221.278Z" fill="#FFAF46"/>
<path d="M340.745 249.924L349.867 256C349.858 249.207 352.564 242.697 357.368 237.901L355.218 227.149C352.812 215.134 344.159 205.338 332.536 201.464L315.128 195.661C299.102 211.644 290.108 233.361 290.134 256L306.552 247.791C317.508 242.313 330.556 243.132 340.745 249.924Z" fill="#FFAF46"/>
<path d="M346.615 276.25L357.367 274.1C352.563 269.304 349.858 262.793 349.866 256.001L340.744 249.925C330.555 243.132 317.508 242.313 306.551 247.792L290.133 256C290.107 278.639 299.102 300.356 315.127 316.339L320.93 298.931C324.804 287.309 334.601 278.656 346.615 276.25Z" fill="#FFAF46"/>
<path d="M355.217 227.149L357.367 237.901C362.163 233.097 368.674 230.392 375.466 230.4L381.542 221.278C388.335 211.089 389.154 198.042 383.675 187.085L375.466 170.667C352.827 170.641 331.11 179.636 315.127 195.661L332.535 201.464C344.158 205.338 352.811 215.134 355.217 227.149Z" fill="#FFAF46"/>
<path d="M369.391 290.722L375.467 281.6C368.674 281.609 362.164 278.903 357.368 274.099L346.616 276.249C334.601 278.655 324.805 287.308 320.931 298.931L315.128 316.339C331.111 332.365 352.828 341.359 375.467 341.333L367.258 324.915C361.779 313.958 362.598 300.911 369.391 290.722Z" fill="#FFAF46"/>
<path d="M430.003 213.069C426.129 224.691 416.333 233.344 404.318 235.751L393.566 237.901C398.37 242.697 401.075 249.208 401.067 256L410.189 262.076C420.378 268.869 433.425 269.688 444.382 264.209L460.8 256C460.826 233.361 451.831 211.644 435.806 195.661L430.003 213.069Z" fill="#FFAF46"/>
<path d="M410.189 262.076L401.067 256C401.076 262.793 398.37 269.303 393.566 274.099L395.716 284.851C398.122 296.866 406.775 306.662 418.398 310.536L435.806 316.339C451.832 300.356 460.826 278.639 460.8 256L444.382 264.209C433.425 269.687 420.378 268.868 410.189 262.076Z" fill="#FFAF46"/>
<path d="M395.716 284.851L393.566 274.099C388.77 278.903 382.259 281.608 375.467 281.6L369.391 290.722C362.598 300.911 361.779 313.958 367.258 324.915L375.467 341.333C398.106 341.359 419.823 332.364 435.806 316.339L418.398 310.536C406.775 306.662 398.123 296.866 395.716 284.851Z" fill="#FFAF46"/>
<path d="M357.367 237.901C347.374 247.894 347.374 264.098 357.367 274.099C367.368 284.092 383.564 284.092 393.565 274.099C403.737 264.277 404.018 248.072 394.196 237.901C384.374 227.729 368.169 227.448 357.998 237.27C357.786 237.474 357.572 237.687 357.367 237.901Z" fill="#FFAF46"/>
<path d="M225.203 213.069C221.329 224.691 211.533 233.344 199.518 235.751L188.766 237.901C193.57 242.697 196.275 249.208 196.267 256L205.389 262.076C215.578 268.869 228.625 269.688 239.582 264.209L256 256C256.026 233.361 247.031 211.644 231.006 195.661L225.203 213.069Z" fill="#FFAF46"/>
<path d="M141.815 276.25L152.567 274.1C147.763 269.304 145.058 262.793 145.066 256.001L135.944 249.925C125.755 243.132 112.708 242.313 101.751 247.792L85.3331 256C85.3071 278.639 94.3021 300.356 110.327 316.339L116.13 298.931C120.004 287.309 129.801 278.656 141.815 276.25Z" fill="#FFAF46"/>
<path d="M164.591 290.722L170.667 281.6C163.874 281.609 157.364 278.903 152.568 274.099L141.816 276.249C129.801 278.655 120.005 287.308 116.131 298.931L110.328 316.339C126.311 332.365 148.028 341.359 170.667 341.333L162.458 324.915C156.979 313.958 157.798 300.911 164.591 290.722Z" fill="#FFAF46"/>
<path d="M135.945 249.924L145.067 256C145.058 249.207 147.764 242.697 152.568 237.901L150.418 227.149C148.012 215.134 139.359 205.338 127.736 201.464L110.328 195.661C94.302 211.644 85.308 233.361 85.334 256L101.752 247.791C112.708 242.313 125.756 243.132 135.945 249.924Z" fill="#FFAF46"/>
<path d="M190.916 284.851L188.766 274.099C183.97 278.903 177.459 281.608 170.667 281.6L164.591 290.722C157.798 300.911 156.979 313.958 162.458 324.915L170.667 341.333C193.306 341.359 215.023 332.364 231.006 316.339L213.598 310.536C201.975 306.662 193.323 296.866 190.916 284.851Z" fill="#FFAF46"/>
<path d="M150.417 227.149L152.567 237.901C157.363 233.097 163.874 230.392 170.666 230.4L176.742 221.278C183.535 211.089 184.354 198.042 178.875 187.085L170.666 170.667C148.027 170.641 126.31 179.636 110.327 195.661L127.735 201.464C139.358 205.338 148.011 215.134 150.417 227.149Z" fill="#FFAF46"/>
<path d="M176.742 221.278L170.666 230.4C177.459 230.391 183.969 233.097 188.765 237.901L199.517 235.751C211.532 233.345 221.328 224.692 225.202 213.069L231.005 195.661C215.022 179.635 193.305 170.641 170.666 170.667L178.875 187.085C184.354 198.042 183.535 211.089 176.742 221.278Z" fill="#FFAF46"/>
<path d="M205.389 262.076L196.267 256C196.276 262.793 193.57 269.303 188.766 274.099L190.916 284.851C193.322 296.866 201.975 306.662 213.598 310.536L231.006 316.339C247.032 300.356 256.026 278.639 256 256L239.582 264.209C228.625 269.687 215.578 268.868 205.389 262.076Z" fill="#FFAF46"/>
<path d="M152.567 237.901C142.574 247.894 142.574 264.098 152.567 274.099C162.56 284.092 178.773 284.092 188.765 274.099C198.937 264.277 199.218 248.072 189.396 237.901C179.574 227.729 163.369 227.448 153.198 237.27C152.986 237.474 152.772 237.687 152.567 237.901Z" fill="#FFAF46"/>
<path d="M128 401.067H93.8672V435.2H128V401.067Z" fill="#FFAF46"/>
<path d="M375.467 349.867C427.307 349.867 469.334 307.84 469.334 256C469.334 204.16 427.307 162.133 375.467 162.133C323.627 162.133 281.6 204.16 281.6 256C281.66 307.814 323.652 349.807 375.467 349.867ZM341.828 260.898C342.169 263.398 342.792 265.856 343.688 268.22C329.233 271.557 317.559 282.163 312.84 296.226L311.901 299.042C304.281 287.795 299.801 274.705 298.93 261.145L310.365 255.428C318.583 251.315 328.37 251.929 336.016 257.024L341.828 260.898ZM409.105 251.102C408.764 248.602 408.141 246.144 407.245 243.78C421.7 240.443 433.374 229.837 438.093 215.774L439.032 212.958C446.652 224.205 451.132 237.295 452.003 250.855L440.568 256.572C432.35 260.668 422.563 260.054 414.917 254.976L409.105 251.102ZM375.467 238.933C384.896 238.933 392.534 246.57 392.534 256C392.534 265.429 384.897 273.067 375.467 273.067C366.038 273.067 358.4 265.43 358.4 256C358.4 246.571 366.037 238.933 375.467 238.933ZM355.123 283.247C357.137 284.783 359.321 286.089 361.625 287.138C353.783 299.716 353.023 315.46 359.628 328.729L360.951 331.383C347.605 328.797 335.197 322.705 324.983 313.736L329.028 301.627C331.929 292.914 339.285 286.421 348.288 284.62L355.123 283.247ZM374.895 321.101C370.782 312.883 371.396 303.096 376.491 295.45L380.365 289.639C382.865 289.298 385.323 288.675 387.687 287.779C391.032 302.226 401.639 313.908 415.693 318.636L418.509 319.575C407.245 327.195 394.155 331.675 380.587 332.537L374.895 321.101ZM421.905 210.372C419.004 219.085 411.648 225.578 402.645 227.379L395.818 228.753C393.804 227.217 391.62 225.911 389.316 224.862C397.158 212.284 397.918 196.54 391.313 183.271L389.99 180.617C403.336 183.203 415.744 189.295 425.958 198.264L421.905 210.372ZM376.038 190.899C380.151 199.117 379.537 208.904 374.442 216.55L370.568 222.361C368.068 222.702 365.61 223.325 363.246 224.221C359.901 209.774 349.294 198.092 335.24 193.364L332.424 192.425C343.688 184.805 356.778 180.325 370.346 179.463L376.038 190.899ZM433.212 306.475L421.103 302.439C412.39 299.538 405.897 292.182 404.096 283.179L402.722 276.352C404.258 274.338 405.572 272.154 406.622 269.841C419.183 277.734 434.944 278.494 448.205 271.846L450.859 270.523C448.273 283.861 442.181 296.268 433.204 306.474H433.212V306.475ZM317.73 205.525L329.839 209.561C338.552 212.462 345.045 219.818 346.846 228.821L348.22 235.648C346.684 237.662 345.378 239.846 344.329 242.15C331.751 234.316 316.007 233.565 302.738 240.153L300.084 241.476C302.669 228.139 308.762 215.731 317.73 205.525Z" fill="#231F20"/>
<path d="M170.667 349.867C222.507 349.867 264.534 307.84 264.534 256C264.534 204.16 222.507 162.133 170.667 162.133C118.827 162.133 76.7998 204.16 76.7998 256C76.8598 307.814 118.852 349.807 170.667 349.867ZM137.028 260.898C137.369 263.398 137.992 265.856 138.888 268.22C124.433 271.557 112.759 282.163 108.04 296.226L107.101 299.042C99.4808 287.795 95.0008 274.705 94.1298 261.145L105.565 255.428C113.783 251.315 123.57 251.929 131.216 257.024L137.028 260.898ZM204.305 251.102C203.964 248.602 203.341 246.144 202.445 243.78C216.9 240.443 228.574 229.837 233.293 215.774L234.232 212.958C241.852 224.205 246.332 237.295 247.203 250.855L235.768 256.572C227.55 260.668 217.763 260.054 210.117 254.976L204.305 251.102ZM170.667 238.933C180.096 238.933 187.734 246.57 187.734 256C187.734 265.429 180.097 273.067 170.667 273.067C161.238 273.067 153.6 265.43 153.6 256C153.6 246.571 161.237 238.933 170.667 238.933ZM150.323 283.247C152.337 284.783 154.521 286.089 156.825 287.138C148.983 299.716 148.223 315.46 154.828 328.729L156.151 331.383C142.805 328.797 130.397 322.705 120.183 313.736L124.228 301.627C127.129 292.914 134.485 286.421 143.488 284.62L150.323 283.247ZM170.095 321.101C165.982 312.883 166.596 303.096 171.691 295.45L175.565 289.639C178.065 289.298 180.523 288.675 182.887 287.779C186.232 302.226 196.839 313.908 210.893 318.636L213.709 319.575C202.445 327.195 189.355 331.675 175.787 332.537L170.095 321.101ZM217.105 210.372C214.204 219.085 206.848 225.578 197.845 227.379L191.018 228.753C189.004 227.217 186.82 225.911 184.516 224.862C192.358 212.284 193.118 196.54 186.513 183.271L185.19 180.617C198.536 183.203 210.944 189.295 221.158 198.264L217.105 210.372ZM171.238 190.899C175.351 199.117 174.737 208.904 169.642 216.55L165.768 222.361C163.268 222.702 160.81 223.325 158.446 224.221C155.101 209.774 144.494 198.092 130.44 193.364L127.624 192.425C138.888 184.805 151.978 180.325 165.546 179.463L171.238 190.899ZM228.412 306.475L216.303 302.439C207.59 299.538 201.097 292.182 199.296 283.179L197.922 276.352C199.458 274.338 200.772 272.154 201.822 269.841C214.383 277.734 230.144 278.494 243.405 271.846L246.059 270.523C243.473 283.861 237.38 296.269 228.412 306.475ZM112.93 205.525L125.039 209.561C133.752 212.462 140.245 219.818 142.046 228.821L143.42 235.648C141.884 237.662 140.578 239.846 139.529 242.15C126.951 234.316 111.207 233.565 97.9378 240.153L95.2838 241.476C97.8688 228.139 103.962 215.731 112.93 205.525Z" fill="#231F20"/>
<path d="M469.333 102.4H51.2V85.3329C51.2 71.1929 39.74 59.7329 25.6 59.7329H0V76.7999H25.6C30.31 76.7999 34.133 80.6229 34.133 85.3329V230.4H17.067V247.467H34.134V256H8.534V358.4H34.134V366.933H17.067V384H34.134V452.267H51.2V409.6H85.333V443.733H170.666V409.6H187.733V443.733H375.466V409.6H469.333C492.885 409.574 511.974 390.485 512 366.933V145.067C511.974 121.515 492.885 102.426 469.333 102.4ZM469.333 119.467C483.473 119.467 494.933 130.927 494.933 145.067V179.2H477.551L429.534 136.533H321.425L287.292 162.133H258.842L224.709 136.533H115.934L81.801 170.666H51.2V119.466H469.333V119.467ZM51.2 187.733H88.866L122.999 153.6H219.025L253.158 179.2H292.975L327.108 153.6H423.048L471.039 196.267H494.932V315.734H471.04L423.023 358.4H327.108L292.975 332.8H253.158L219.025 358.4H122.999L88.866 324.267H51.2V187.733ZM25.6 341.333V273.066H34.133V341.333H25.6ZM119.467 426.667H102.4V409.6H119.467V426.667V426.667ZM153.6 426.667H136.533V409.6H153.6V426.667ZM221.867 426.667H204.8V409.6H221.867V426.667V426.667ZM256 426.667H238.933V409.6H256V426.667ZM290.133 426.667H273.066V409.6H290.133V426.667ZM324.267 426.667H307.2V409.6H324.267V426.667ZM358.4 426.667H341.333V409.6H358.4V426.667ZM469.333 392.533H51.2V341.333H81.801L115.934 375.466H224.708L258.841 349.866H287.291L321.424 375.466H429.533L477.55 332.799H494.932V366.932C494.933 381.073 483.473 392.533 469.333 392.533Z" fill="#231F20"/>
</svg>
