<svg width="496" height="499" viewBox="0 0 496 499" fill="none" xmlns="http://www.w3.org/2000/svg">
<path d="M486.819 10.072V234.177H235.016V47.843" fill="#FFE100"/>
<path d="M33.573 80.577L201.442 52.039V236.695H33.573V80.577Z" fill="#00DA6C"/>
<path d="M235.016 450.728L486.819 488.498V270.269H235.016V450.728Z" fill="#3DB9F9"/>
<path d="M235.016 450.728L461.639 488.498V270.269H235.016V450.728Z" fill="#63D3FD"/>
<path d="M33.573 417.993L201.442 446.531V270.269H33.573V417.993Z" fill="#FFAF46"/>
<path d="M235.016 47.843V234.177H486.819V10.072" fill="#DD3859"/>
<path d="M235.016 47.843V234.177H461.639V10.072" fill="#E4667F"/>
<path d="M495.213 242.57H226.623V40.289L301.325 29.378C305.522 28.539 310.558 31.896 310.558 36.093C311.397 40.29 308.04 45.326 303.843 45.326L243.41 54.559V225.785H478.426V20.144L353.364 38.61C349.167 39.449 344.131 36.092 344.131 31.895C343.292 27.698 346.649 22.662 350.846 22.662L495.213 0V242.57Z" fill="#231F20"/>
<path d="M209.836 245.089H0V73.023L209.836 41.967V245.089ZM16.787 228.302H193.049V61.272L16.787 87.292V228.302Z" fill="#231F20"/>
<path d="M495.213 498.57L226.623 458.281V261.875H495.213V498.57ZM243.41 444.013L478.426 479.265V278.662H243.41V444.013Z" fill="#231F20"/>
<path d="M209.836 456.603L0 425.548V261.875H209.836V456.603ZM16.787 411.279L193.049 437.299V278.662H16.787V411.279Z" fill="#231F20"/>
<path d="M335.737 35.252C335.737 30.216 332.38 26.859 327.344 26.859C322.308 26.859 318.951 30.216 318.951 35.252C318.951 40.288 322.308 43.645 327.344 43.645C332.38 43.646 335.737 40.289 335.737 35.252Z" fill="#231F20"/>
</svg>
